<?xml version="1.0" encoding="UTF-8"?>
<!DOCTYPE svg PUBLIC "-//W3C//DTD SVG 1.1//EN" "http://www.w3.org/Graphics/SVG/1.1/DTD/svg11.dtd">
<!-- Creator: CorelDRAW 2021 (64-Bit) -->
<svg xmlns="http://www.w3.org/2000/svg" xml:space="preserve" width="104px" height="104px" version="1.1" style="shape-rendering:geometricPrecision; text-rendering:geometricPrecision; image-rendering:optimizeQuality; fill-rule:evenodd; clip-rule:evenodd"
viewBox="0 0 4.15 4.15"
 xmlns:xlink="http://www.w3.org/1999/xlink"
 xmlns:xodm="http://www.corel.com/coreldraw/odm/2003">
 <defs>
  <style type="text/css">
   <![CDATA[
    .fil0 {fill:#FEFEFE}
   ]]>
  </style>
 </defs>
 <g id="Capa_x0020_1">
  <metadata id="CorelCorpID_0Corel-Layer"/>
  <path class="fil0" d="M2.08 0c1.14,0 2.07,0.93 2.07,2.08 0,1.14 -0.93,2.07 -2.07,2.07 -1.15,0 -2.08,-0.93 -2.08,-2.07 0,-1.15 0.93,-2.08 2.08,-2.08zm0 3.13c-0.59,0 -1.06,-0.47 -1.06,-1.05 0,-0.59 0.47,-1.06 1.06,-1.06 0.58,0 1.05,0.47 1.05,1.06 0,0.58 -0.47,1.05 -1.05,1.05zm-0.38 -0.44l0.38 -0.63 -0.45 0 0.46 -0.6 0.26 0 -0.32 0.41 0.49 0 -0.82 0.82zm0.38 -1.56c-0.53,0 -0.95,0.42 -0.95,0.95 0,0.52 0.42,0.94 0.95,0.94 0.52,0 0.94,-0.42 0.94,-0.94 0,-0.53 -0.42,-0.95 -0.94,-0.95zm1.49 0.75c-0.06,-0.04 -0.31,-0.04 -0.33,-0.12 -0.02,-0.07 0.19,-0.2 0.23,-0.26 -0.07,-0.02 -0.29,0.08 -0.33,0.02 -0.04,-0.07 0.11,-0.29 0.13,-0.36 -0.07,0 -0.28,0.13 -0.34,0.08 -0.05,-0.06 0.06,-0.29 0.06,-0.36 -0.07,0.02 -0.24,0.2 -0.3,0.16 -0.07,-0.04 -0.02,-0.29 -0.04,-0.36 -0.06,0.04 -0.18,0.26 -0.26,0.24 -0.07,-0.02 -0.08,-0.28 -0.12,-0.34 -0.05,0.05 -0.12,0.3 -0.19,0.3 -0.08,0 -0.15,-0.25 -0.2,-0.3 -0.04,0.06 -0.04,0.31 -0.11,0.33 -0.07,0.02 -0.21,-0.19 -0.27,-0.23 -0.02,0.07 0.04,0.32 -0.03,0.36 -0.07,0.04 -0.24,-0.14 -0.31,-0.16 0,0.07 0.12,0.29 0.07,0.34 -0.06,0.06 -0.28,-0.06 -0.35,-0.06 0.02,0.07 0.19,0.22 0.15,0.29 -0.04,0.07 -0.28,0.03 -0.35,0.05 0.04,0.06 0.26,0.17 0.24,0.25 -0.02,0.07 -0.28,0.09 -0.34,0.13 0.05,0.05 0.3,0.1 0.3,0.18 0,0.08 -0.25,0.16 -0.3,0.21 0.06,0.04 0.32,0.04 0.34,0.12 0.02,0.07 -0.2,0.2 -0.24,0.26 0.07,0.02 0.32,-0.04 0.35,0.02 0.04,0.07 -0.13,0.25 -0.15,0.32 0.07,0 0.29,-0.12 0.35,-0.06 0.05,0.05 -0.07,0.27 -0.07,0.34 0.07,-0.02 0.25,-0.19 0.32,-0.15 0.07,0.04 0,0.28 0.02,0.35 0.06,-0.04 0.19,-0.25 0.26,-0.23 0.08,0.02 0.08,0.27 0.12,0.33 0.05,-0.05 0.12,-0.29 0.2,-0.29 0.07,0 0.14,0.24 0.19,0.29 0.04,-0.06 0.06,-0.32 0.13,-0.34 0.07,-0.02 0.19,0.2 0.25,0.24 0.02,-0.07 -0.02,-0.33 0.05,-0.37 0.06,-0.04 0.22,0.15 0.29,0.17 0,-0.07 -0.11,-0.3 -0.05,-0.36 0.05,-0.05 0.26,0.08 0.33,0.08 -0.02,-0.07 -0.19,-0.26 -0.15,-0.32 0.04,-0.07 0.28,0 0.35,-0.02 -0.04,-0.06 -0.25,-0.2 -0.23,-0.27 0.02,-0.08 0.27,-0.07 0.33,-0.11 -0.05,-0.05 -0.29,-0.12 -0.29,-0.19 0,-0.08 0.24,-0.15 0.29,-0.2z"/>
 </g>
</svg>
