<?xml version="1.0" encoding="UTF-8"?>
<!DOCTYPE svg PUBLIC "-//W3C//DTD SVG 1.1//EN" "http://www.w3.org/Graphics/SVG/1.1/DTD/svg11.dtd">
<!-- Creator: CorelDRAW 2021 (64-Bit) -->
<svg xmlns="http://www.w3.org/2000/svg" xml:space="preserve" width="104px" height="104px" version="1.1" style="shape-rendering:geometricPrecision; text-rendering:geometricPrecision; image-rendering:optimizeQuality; fill-rule:evenodd; clip-rule:evenodd"
viewBox="0 0 2.85 2.85"
 xmlns:xlink="http://www.w3.org/1999/xlink"
 xmlns:xodm="http://www.corel.com/coreldraw/odm/2003">
 <defs>
  <style type="text/css">
   <![CDATA[
    .fil0 {fill:#324D81}
   ]]>
  </style>
 </defs>
 <g id="Capa_x0020_1">
  <metadata id="CorelCorpID_0Corel-Layer"/>
  <path class="fil0" d="M1.42 0c0.79,0 1.43,0.64 1.43,1.42 0,0.79 -0.64,1.43 -1.43,1.43 -0.78,0 -1.42,-0.64 -1.42,-1.43 0,-0.78 0.64,-1.42 1.42,-1.42zm-0.03 0.74l-0.41 0.45c-0.01,0.01 -0.01,0.02 -0.01,0.04 0,0.03 0.02,0.06 0.06,0.06l0.07 0 -0.2 0.2c-0.01,0.01 -0.02,0.03 -0.02,0.05 0,0.03 0.03,0.06 0.06,0.06l0.09 0 -0.2 0.24c-0.01,0.01 -0.02,0.03 -0.02,0.04 0,0.04 0.03,0.06 0.07,0.06l0.46 0 0 0.09c0,0.05 0.03,0.09 0.08,0.09 0.05,0 0.09,-0.04 0.09,-0.09l0 -0.09 0.46 0c0.03,0 0.06,-0.02 0.06,-0.06 0,-0.01 0,-0.03 -0.01,-0.04l-0.21 -0.24 0.09 0c0.04,0 0.07,-0.03 0.07,-0.06 0,-0.02 -0.01,-0.04 -0.02,-0.05l-0.2 -0.2 0.07 0c0.03,0 0.06,-0.03 0.06,-0.06 0,-0.02 -0.01,-0.03 -0.02,-0.04l-0.4 -0.45c-0.01,-0.01 -0.02,-0.01 -0.04,-0.01 -0.01,0 -0.02,0 -0.03,0.01z"/>
 </g>
</svg>
