<?xml version="1.0" encoding="UTF-8"?>
<!DOCTYPE svg PUBLIC "-//W3C//DTD SVG 1.1//EN" "http://www.w3.org/Graphics/SVG/1.1/DTD/svg11.dtd">
<!-- Creator: CorelDRAW 2021 (64-Bit) -->
<svg xmlns="http://www.w3.org/2000/svg" xml:space="preserve" width="227px" height="227px" version="1.1" style="shape-rendering:geometricPrecision; text-rendering:geometricPrecision; image-rendering:optimizeQuality; fill-rule:evenodd; clip-rule:evenodd"
viewBox="0 0 30.88 30.88"
 xmlns:xlink="http://www.w3.org/1999/xlink"
 xmlns:xodm="http://www.corel.com/coreldraw/odm/2003">
 <defs>
  <style type="text/css">
   <![CDATA[
    .fil0 {fill:#324D81}
   ]]>
  </style>
    <clipPath id="id0">
     <path d="M0 0l30.88 0 0 30.88 -30.88 0 0 -30.88z"/>
    </clipPath>
 </defs>
 <g id="Capa_x0020_1">
  <metadata id="CorelCorpID_0Corel-Layer"/>
  <g id="_2821981662480">
   <g style="clip-path:url(#id0)">
    <image x="0" y="0" width="30.88" height="30.88" xlink:href="bomba azul_Images\bomba azul_ImgID1.png"/>
   </g>
  </g>
  <path class="fil0" d="M15.44 3.56c6.56,0 11.88,5.32 11.88,11.88 0,6.56 -5.32,11.88 -11.88,11.88 -6.56,0 -11.88,-5.32 -11.88,-11.88 0,-6.56 5.32,-11.88 11.88,-11.88zm-0.61 20.19l2.12 0c0.19,0 0.25,-0.06 0.25,-0.25l0 -8.38 -2.37 0 0 8.63zm-0.78 -9.31c0.17,0.19 0.2,0.34 0.42,0.34 4.06,0 3.48,0.2 3.48,-0.68 -0.79,-0.18 -2.57,-0.08 -3.48,-0.08 -0.27,0 -0.32,0.24 -0.42,0.42zm-0.37 9.98l0 0.42 4.66 0 -0.08 -0.76c-0.8,-0.19 -3.02,-0.09 -3.98,-0.09 -0.29,0 -0.6,0.15 -0.6,0.43zm-1.14 -12.11c0,0.34 0.34,0.71 0.65,0.71 0.31,0 0.66,-0.27 0.66,-0.66 0,-0.59 -0.55,-1.31 -0.61,-1.55 -0.2,0.14 -0.7,1.26 -0.7,1.5zm0.19 -2.82l1.43 0c0.29,-0.55 0.58,-0.82 0.97,-0.96l0 5.17 1.7 0 0 -6.63c-2.59,0 0.76,0 -1.7,0l0 0.04c-0.58,0.09 -1.1,0.3 -1.55,0.75 -0.49,0.47 -0.67,0.87 -0.85,1.63z"/>
 </g>
</svg>
