<?xml version="1.0" encoding="UTF-8"?>
<!DOCTYPE svg PUBLIC "-//W3C//DTD SVG 1.1//EN" "http://www.w3.org/Graphics/SVG/1.1/DTD/svg11.dtd">
<!-- Creator: CorelDRAW 2021 (64-Bit) -->
<svg xmlns="http://www.w3.org/2000/svg" xml:space="preserve" width="104px" height="104px" version="1.1" style="shape-rendering:geometricPrecision; text-rendering:geometricPrecision; image-rendering:optimizeQuality; fill-rule:evenodd; clip-rule:evenodd"
viewBox="0 0 5.72 5.72"
 xmlns:xlink="http://www.w3.org/1999/xlink"
 xmlns:xodm="http://www.corel.com/coreldraw/odm/2003">
 <defs>
  <style type="text/css">
   <![CDATA[
    .fil0 {fill:#FEFEFE}
   ]]>
  </style>
 </defs>
 <g id="Capa_x0020_1">
  <metadata id="CorelCorpID_0Corel-Layer"/>
  <path class="fil0" d="M2.86 0c1.58,0 2.86,1.28 2.86,2.86 0,1.58 -1.28,2.86 -2.86,2.86 -1.58,0 -2.86,-1.28 -2.86,-2.86 0,-1.58 1.28,-2.86 2.86,-2.86zm0.65 4.39l-1.31 0c0,0 0.08,0.38 0.65,0.43 0.57,-0.05 0.66,-0.43 0.66,-0.43zm0.36 -2.56l0 0 0 0c0.01,0.13 -0.01,0.27 -0.05,0.4 -0.1,0.31 -0.19,0.29 -0.23,0.69 -0.02,0.16 -0.02,0.32 -0.01,0.47l-0.1 0 -1.26 0 -0.09 0c0.01,-0.22 0,-0.44 -0.04,-0.66 -0.05,-0.27 -0.14,-0.34 -0.2,-0.57 -0.16,-0.6 0.26,-1.26 0.97,-1.26 0.53,0 0.97,0.41 1.01,0.93zm-0.49 -0.39c0,0 -1.43,0.67 -0.75,1.56 0.03,-0.29 0.14,-0.86 0.51,-1.22 0,0 -0.34,0.42 -0.36,1.15 0,0 0,0 0,0 0,0 0,0 0,0 0,0.01 -0.01,0.08 -0.04,0.13 0.06,-0.02 0.14,-0.05 0.18,-0.07 0.8,-0.39 0.2,-1.13 0.46,-1.55zm0.1 2l-1.26 0c-0.07,0 -0.13,0.06 -0.13,0.14 0,0.07 0.06,0.13 0.13,0.13l1.26 0c0.07,0 0.13,-0.06 0.13,-0.13 0,-0.08 -0.06,-0.14 -0.13,-0.14zm0 0.32l-1.26 0c-0.07,0 -0.13,0.06 -0.13,0.13 0,0.07 0.06,0.13 0.13,0.13l1.26 0c0.07,0 0.13,-0.06 0.13,-0.13 0,-0.07 -0.06,-0.13 -0.13,-0.13zm0 0.31l-1.26 0c-0.07,0 -0.13,0.06 -0.13,0.14 0,0.07 0.06,0.13 0.13,0.13l1.26 0c0.07,0 0.13,-0.06 0.13,-0.13 0,-0.08 -0.06,-0.14 -0.13,-0.14z"/>
 </g>
</svg>
