<?xml version="1.0" encoding="UTF-8"?>
<!DOCTYPE svg PUBLIC "-//W3C//DTD SVG 1.1//EN" "http://www.w3.org/Graphics/SVG/1.1/DTD/svg11.dtd">
<!-- Creator: CorelDRAW 2021 (64-Bit) -->
<svg xmlns="http://www.w3.org/2000/svg" xml:space="preserve" width="104px" height="104px" version="1.1" style="shape-rendering:geometricPrecision; text-rendering:geometricPrecision; image-rendering:optimizeQuality; fill-rule:evenodd; clip-rule:evenodd"
viewBox="0 0 2.84 2.84"
 xmlns:xlink="http://www.w3.org/1999/xlink"
 xmlns:xodm="http://www.corel.com/coreldraw/odm/2003">
 <defs>
  <style type="text/css">
   <![CDATA[
    .fil0 {fill:#FEFEFE}
   ]]>
  </style>
 </defs>
 <g id="Capa_x0020_1">
  <metadata id="CorelCorpID_0Corel-Layer"/>
  <path class="fil0" d="M1.42 0c0.79,0 1.42,0.64 1.42,1.42 0,0.79 -0.63,1.42 -1.42,1.42 -0.78,0 -1.42,-0.63 -1.42,-1.42 0,-0.78 0.64,-1.42 1.42,-1.42zm0.25 1.81c0.03,-0.09 0.09,-0.18 0.15,-0.26 0,0 0,0 0,0 0.01,-0.02 0.03,-0.04 0.05,-0.07 0.06,-0.08 0.09,-0.19 0.09,-0.3 0,-0.3 -0.24,-0.55 -0.54,-0.55 -0.3,0 -0.54,0.25 -0.54,0.55 0,0.11 0.04,0.22 0.1,0.3 0.01,0.03 0.03,0.05 0.04,0.07 0,0 0,0 0,0 0.06,0.08 0.13,0.17 0.15,0.26l0.5 0 0 0zm-0.25 0.4c0.14,0 0.25,-0.11 0.25,-0.25l0 -0.05 -0.5 0 0 0.05c0,0.14 0.12,0.25 0.25,0.25zm-0.25 -1.03c0,0.02 -0.02,0.04 -0.04,0.04 -0.03,0 -0.05,-0.02 -0.05,-0.04 0,-0.2 0.15,-0.35 0.34,-0.35 0.03,0 0.05,0.02 0.05,0.05 0,0.03 -0.02,0.05 -0.05,0.05 -0.13,0 -0.25,0.11 -0.25,0.25z"/>
 </g>
</svg>
