<?xml version="1.0" encoding="UTF-8"?>
<!DOCTYPE svg PUBLIC "-//W3C//DTD SVG 1.1//EN" "http://www.w3.org/Graphics/SVG/1.1/DTD/svg11.dtd">
<!-- Creator: CorelDRAW 2021 (64-Bit) -->
<svg xmlns="http://www.w3.org/2000/svg" xml:space="preserve" width="104px" height="104px" version="1.1" style="shape-rendering:geometricPrecision; text-rendering:geometricPrecision; image-rendering:optimizeQuality; fill-rule:evenodd; clip-rule:evenodd"
viewBox="0 0 4.81 4.81"
 xmlns:xlink="http://www.w3.org/1999/xlink"
 xmlns:xodm="http://www.corel.com/coreldraw/odm/2003">
 <defs>
  <style type="text/css">
   <![CDATA[
    .fil0 {fill:#324D81}
   ]]>
  </style>
 </defs>
 <g id="Capa_x0020_1">
  <metadata id="CorelCorpID_0Corel-Layer"/>
  <path class="fil0" d="M2.41 0c1.33,0 2.4,1.08 2.4,2.41 0,1.33 -1.07,2.4 -2.4,2.4 -1.33,0 -2.41,-1.07 -2.41,-2.4 0,-1.33 1.08,-2.41 2.41,-2.41zm0.46 1.85c0.03,0.07 0.03,0.44 0,0.5 -0.04,0.02 -0.07,0.02 -0.11,0.01 -0.03,-0.08 -0.02,-0.21 -0.02,-0.31 0,-0.13 -0.02,-0.25 0.13,-0.2zm0.92 0.46c0.07,-0.17 -0.18,-0.15 -0.23,0 -0.07,0.18 0.17,0.17 0.23,0zm0.08 -0.36l0 -0.1c-0.08,-0.07 -0.14,-0.08 -0.23,-0.01 -0.2,0.16 -0.08,0.36 0.09,0.27 0.08,-0.05 0.08,-0.08 0.14,-0.16zm-0.24 -0.55c-0.28,0.1 -0.29,0.48 -0.01,0.39 0.26,-0.08 0.3,-0.49 0.01,-0.39zm-0.87 0.35c0.09,-0.03 0.16,0 0.19,0.06 0.04,0.05 0.03,0.15 0.03,0.24 0,0.17 0.04,0.37 -0.12,0.41 -0.21,0.05 -0.22,-0.13 -0.22,-0.3 0,-0.17 -0.04,-0.36 0.12,-0.41zm0.65 -0.67c-0.31,0.1 -0.32,0.52 -0.02,0.43 0.29,-0.08 0.32,-0.52 0.02,-0.43zm-0.23 -0.34l-0.11 0c-0.1,0.05 -0.21,0.06 -0.31,0.25 -0.19,0.34 0.24,0.49 0.48,0.12 0.04,-0.05 0.07,-0.13 0.07,-0.22 -0.01,-0.1 -0.07,-0.11 -0.13,-0.15zm-0.63 1.53l-0.08 -0.01c-0.03,0.07 -0.01,0.12 -0.11,0.1 -0.06,-0.07 -0.03,-0.25 -0.03,-0.37 0,-0.06 -0.02,-0.14 0.04,-0.15 0.08,-0.02 0.08,0.04 0.1,0.1 0.19,0.02 0.07,-0.21 -0.09,-0.2 -0.17,0.01 -0.15,0.16 -0.15,0.32 0,0.15 -0.03,0.34 0.08,0.39 0.13,0.06 0.26,-0.04 0.24,-0.18zm0.52 -0.01c0.09,-0.01 -0.02,-0.06 0.09,-0.06 0.06,0.13 -0.11,0.22 -0.1,0.36 0.1,0 0.14,0.02 0.17,-0.03 -0.03,-0.03 -0.04,-0.02 -0.1,-0.02 0.02,-0.09 0.1,-0.17 0.1,-0.27 -0.01,-0.17 -0.24,-0.08 -0.16,0.02zm-2.13 1.22l0 0.15c0.05,0.08 0.04,0.14 0.11,0.23 0.18,0.22 0.46,0.28 0.68,0.14 0.2,-0.12 0.21,-0.42 1.03,-0.91 0.25,-0.15 0.58,-0.33 0.69,-0.59 0.2,-0.48 -0.17,-1.15 -0.73,-1.1 -0.35,0.03 -0.68,0.25 -0.75,0.53 -0.05,0.18 -0.06,0.38 -0.08,0.58 -0.02,0.17 -0.14,0.33 -0.23,0.4 -0.14,0.11 -0.26,0.14 -0.43,0.21 -0.25,0.11 -0.22,0.23 -0.29,0.36z"/>
 </g>
</svg>
