<?xml version="1.0" encoding="UTF-8"?>
<!DOCTYPE svg PUBLIC "-//W3C//DTD SVG 1.1//EN" "http://www.w3.org/Graphics/SVG/1.1/DTD/svg11.dtd">
<!-- Creator: CorelDRAW 2021 (64-Bit) -->
<svg xmlns="http://www.w3.org/2000/svg" xml:space="preserve" width="136px" height="136px" version="1.1" style="shape-rendering:geometricPrecision; text-rendering:geometricPrecision; image-rendering:optimizeQuality; fill-rule:evenodd; clip-rule:evenodd"
viewBox="0 0 8.07 8.07"
 xmlns:xlink="http://www.w3.org/1999/xlink"
 xmlns:xodm="http://www.corel.com/coreldraw/odm/2003">
 <defs>
  <style type="text/css">
   <![CDATA[
    .fil0 {fill:#FEFEFE}
   ]]>
  </style>
    <clipPath id="id0">
     <path d="M0 0l8.07 0 0 8.07 -8.07 0 0 -8.07z"/>
    </clipPath>
 </defs>
 <g id="Capa_x0020_1">
  <metadata id="CorelCorpID_0Corel-Layer"/>
  <g id="_2821833720032">
   <g style="clip-path:url(#id0)">
    <image x="0" y="0" width="8.07" height="8.07" xlink:href="huella de carbón blanco_Images\huella de carbón blanco_ImgID1.png"/>
   </g>
  </g>
  <path class="fil0" d="M4.03 0.93c1.72,0 3.11,1.39 3.11,3.1 0,1.72 -1.39,3.11 -3.11,3.11 -1.71,0 -3.1,-1.39 -3.1,-3.11 0,-1.71 1.39,-3.1 3.1,-3.1zm0.61 2.38c0.03,0.1 0.03,0.57 -0.01,0.66 -0.04,0.01 -0.09,0.01 -0.14,0 -0.04,-0.1 -0.03,-0.26 -0.03,-0.4 0,-0.16 -0.03,-0.31 0.18,-0.26zm1.19 0.61c0.07,-0.22 -0.24,-0.2 -0.31,-0.01 -0.08,0.24 0.23,0.23 0.31,0.01zm0.09 -0.48l0 -0.12c-0.09,-0.1 -0.18,-0.11 -0.3,-0.01 -0.26,0.2 -0.1,0.46 0.12,0.34 0.11,-0.06 0.11,-0.1 0.18,-0.21zm-0.3 -0.71c-0.37,0.13 -0.38,0.63 -0.02,0.52 0.34,-0.12 0.39,-0.65 0.02,-0.52zm-1.12 0.45c0.1,-0.03 0.2,0.01 0.24,0.08 0.05,0.07 0.04,0.2 0.04,0.31 0,0.22 0.05,0.49 -0.16,0.53 -0.27,0.06 -0.28,-0.16 -0.28,-0.38 0,-0.23 -0.05,-0.47 0.16,-0.54zm0.83 -0.86c-0.4,0.13 -0.42,0.67 -0.03,0.56 0.37,-0.11 0.42,-0.68 0.03,-0.56zm-0.3 -0.44l-0.14 0c-0.13,0.07 -0.27,0.09 -0.4,0.33 -0.24,0.44 0.31,0.63 0.63,0.16 0.04,-0.08 0.08,-0.18 0.07,-0.29 -0.01,-0.13 -0.08,-0.14 -0.16,-0.2zm-0.8 1.98l-0.11 -0.02c-0.04,0.1 -0.02,0.16 -0.15,0.14 -0.07,-0.1 -0.04,-0.33 -0.04,-0.48 0,-0.08 -0.02,-0.18 0.06,-0.2 0.1,-0.03 0.1,0.06 0.13,0.13 0.24,0.03 0.08,-0.27 -0.12,-0.26 -0.21,0.02 -0.19,0.21 -0.19,0.42 0,0.19 -0.04,0.43 0.1,0.5 0.17,0.08 0.34,-0.05 0.32,-0.23zm0.66 -0.02c0.12,-0.01 -0.02,-0.07 0.12,-0.07 0.07,0.16 -0.14,0.29 -0.13,0.46 0.13,0.01 0.18,0.02 0.21,-0.03 -0.03,-0.05 -0.04,-0.03 -0.13,-0.04 0.03,-0.11 0.14,-0.21 0.13,-0.34 -0.01,-0.22 -0.3,-0.1 -0.2,0.02zm-2.74 1.58l0 0.2c0.06,0.1 0.04,0.17 0.14,0.29 0.22,0.28 0.59,0.36 0.88,0.18 0.26,-0.16 0.27,-0.54 1.32,-1.17 0.32,-0.2 0.75,-0.43 0.89,-0.76 0.26,-0.62 -0.22,-1.49 -0.94,-1.43 -0.45,0.05 -0.87,0.32 -0.97,0.69 -0.07,0.24 -0.08,0.48 -0.1,0.74 -0.02,0.23 -0.18,0.44 -0.3,0.53 -0.17,0.14 -0.34,0.17 -0.56,0.27 -0.31,0.14 -0.28,0.29 -0.36,0.46z"/>
 </g>
</svg>
