<?xml version="1.0" encoding="UTF-8"?>
<!DOCTYPE svg PUBLIC "-//W3C//DTD SVG 1.1//EN" "http://www.w3.org/Graphics/SVG/1.1/DTD/svg11.dtd">
<!-- Creator: CorelDRAW 2021 (64-Bit) -->
<svg xmlns="http://www.w3.org/2000/svg" xml:space="preserve" width="174px" height="174px" version="1.1" style="shape-rendering:geometricPrecision; text-rendering:geometricPrecision; image-rendering:optimizeQuality; fill-rule:evenodd; clip-rule:evenodd"
viewBox="0 0 12.64 12.64"
 xmlns:xlink="http://www.w3.org/1999/xlink"
 xmlns:xodm="http://www.corel.com/coreldraw/odm/2003">
 <defs>
  <style type="text/css">
   <![CDATA[
    .fil0 {fill:#FEFEFE}
   ]]>
  </style>
 </defs>
 <g id="Capa_x0020_1">
  <metadata id="CorelCorpID_0Corel-Layer"/>
  <path class="fil0" d="M6.32 0c3.49,0 6.32,2.83 6.32,6.32 0,3.49 -2.83,6.32 -6.32,6.32 -3.49,0 -6.32,-2.83 -6.32,-6.32 0,-3.49 2.83,-6.32 6.32,-6.32zm-1.65 3.72l0 1.99c0,0.26 0.18,0.36 0.43,0.36l1.39 0c0.08,0 0.17,-0.04 0.17,-0.12 0,-0.16 -0.19,-0.12 -0.35,-0.12l-0.98 0c-0.12,0 -0.42,0.04 -0.42,-0.08l0 -2.08c0,-0.03 0.05,-0.07 0.08,-0.07l2.66 0c0.05,0 0.11,0.02 0.11,0.07l0 2.08c0,0.1 -0.15,0.08 -0.25,0.08 -0.07,0 -0.44,-0.01 -0.49,0.01 -0.09,0.04 -0.14,0.23 0.13,0.23 0.35,0 0.85,0.09 0.85,-0.36l0 -1.99c0,-0.22 -0.15,-0.37 -0.36,-0.37l-2.6 0c-0.22,0 -0.37,0.15 -0.37,0.37zm0.7 0.34l1.93 0 0 0.68 -1.93 0 0 -0.68zm-0.26 2.5l2.45 0c0.17,0 0.17,-0.24 0,-0.24l-2.45 0c-0.17,0 -0.17,0.24 0,0.24zm0.26 -1.08c0,0.16 0.23,0.18 0.23,-0.02 0,-0.1 -0.23,-0.15 -0.23,0.02zm0.57 -0.02c0,0.19 0.23,0.19 0.23,0 0,-0.12 -0.23,-0.12 -0.23,0zm0.56 0c0,0.19 0.23,0.19 0.23,0 0,-0.12 -0.23,-0.12 -0.23,0zm0.57 0c0,0.19 0.23,0.19 0.23,0 0,-0.12 -0.23,-0.12 -0.23,0zm-3.11 -3.22l4.72 0c0.2,0 0.39,0.09 0.52,0.22 0.13,0.13 0.22,0.32 0.22,0.52l0 6.67c0,0.21 -0.09,0.39 -0.22,0.53 -0.13,0.13 -0.32,0.21 -0.52,0.21l-4.72 0c-0.21,0 -0.39,-0.08 -0.53,-0.21 -0.13,-0.14 -0.21,-0.32 -0.21,-0.53l0 -6.67c0,-0.2 0.08,-0.39 0.21,-0.52 0.14,-0.13 0.32,-0.22 0.53,-0.22zm4.72 0.33l-4.72 0c-0.12,0 -0.22,0.05 -0.29,0.12 -0.08,0.08 -0.13,0.18 -0.13,0.29l0 6.67c0,0.12 0.05,0.22 0.13,0.3 0.07,0.07 0.17,0.12 0.29,0.12l4.72 0c0.11,0 0.21,-0.05 0.29,-0.12 0.08,-0.08 0.12,-0.18 0.12,-0.3l0 -6.67c0,-0.11 -0.04,-0.21 -0.12,-0.29 -0.08,-0.07 -0.18,-0.12 -0.29,-0.12zm-3.55 1.58c0,0.35 -0.08,0.84 0.26,0.84l1.89 0c0.34,0 0.26,-0.49 0.26,-0.84 0,-0.15 -0.06,-0.32 -0.21,-0.32l-1.99 0c-0.06,0 -0.13,0.05 -0.16,0.09 -0.04,0.06 -0.05,0.14 -0.05,0.23z"/>
 </g>
</svg>
