<?xml version="1.0" encoding="UTF-8"?>
<!DOCTYPE svg PUBLIC "-//W3C//DTD SVG 1.1//EN" "http://www.w3.org/Graphics/SVG/1.1/DTD/svg11.dtd">
<!-- Creator: CorelDRAW 2021 (64-Bit) -->
<svg xmlns="http://www.w3.org/2000/svg" xml:space="preserve" width="136px" height="136px" version="1.1" style="shape-rendering:geometricPrecision; text-rendering:geometricPrecision; image-rendering:optimizeQuality; fill-rule:evenodd; clip-rule:evenodd"
viewBox="0 0 10.37 10.37"
 xmlns:xlink="http://www.w3.org/1999/xlink"
 xmlns:xodm="http://www.corel.com/coreldraw/odm/2003">
 <defs>
  <style type="text/css">
   <![CDATA[
    .fil0 {fill:#FEFEFE}
   ]]>
  </style>
    <clipPath id="id0">
     <path d="M0 0l10.37 0 0 10.37 -10.37 0 0 -10.37z"/>
    </clipPath>
 </defs>
 <g id="Capa_x0020_1">
  <metadata id="CorelCorpID_0Corel-Layer"/>
  <g id="_2821844154672">
   <g style="clip-path:url(#id0)">
    <image x="0" y="0" width="10.37" height="10.37" xlink:href="Post venta_Images\Post venta_ImgID1.png"/>
   </g>
  </g>
  <path class="fil0" d="M5.19 1.2c2.2,0 3.99,1.78 3.99,3.99 0,2.2 -1.79,3.99 -3.99,3.99 -2.21,0 -3.99,-1.79 -3.99,-3.99 0,-2.21 1.78,-3.99 3.99,-3.99zm-0.63 5.57c-0.05,-0.23 0.26,-0.26 0.3,-0.08 0.02,0.09 -0.05,0.17 -0.11,0.19 -0.09,0.02 -0.18,-0.04 -0.19,-0.11zm3.21 -1.7c-0.04,0.12 -0.24,0.08 -0.21,-0.07 0.04,-0.13 0.26,-0.06 0.21,0.07zm0.35 0.08l-0.84 -1.7c-0.08,0 -0.3,0.12 -0.38,0.16 -0.12,0.06 -0.25,0.13 -0.25,0.29 0,0.14 0.27,0.61 0.33,0.75 0.07,0.14 0.31,0.64 0.38,0.69 0.13,0.11 0.27,0.05 0.41,-0.02 0.11,-0.05 0.23,-0.11 0.35,-0.17zm-5.32 -0.24c-0.03,0.03 -0.11,0.05 -0.16,0.02 -0.04,-0.02 -0.06,-0.1 -0.03,-0.15 0.08,-0.12 0.26,0.02 0.19,0.13zm-0.55 -0.02c0.09,0.08 0.22,0.16 0.31,0.23 0.11,0.07 0.26,0.17 0.41,0.06 0.08,-0.05 0.39,-0.51 0.47,-0.63 0.42,-0.6 0.61,-0.72 0.23,-1 -0.07,-0.05 -0.27,-0.21 -0.35,-0.22 -0.11,0.14 -0.4,0.59 -0.54,0.77l-0.41 0.58c-0.03,0.05 -0.12,0.15 -0.12,0.21zm2.32 1.55l-0.24 0.26c-0.13,0.1 -0.3,-0.06 -0.23,-0.2 0.03,-0.05 0.21,-0.22 0.25,-0.26 0.14,-0.1 0.3,0.08 0.22,0.2zm-0.53 -0.49c0.11,-0.07 0.25,0.04 0.23,0.16 -0.01,0.05 -0.16,0.2 -0.2,0.22 -0.11,0.07 -0.23,-0.03 -0.22,-0.15 0,-0.07 0.14,-0.2 0.19,-0.23zm-0.35 -0.25c0.17,-0.09 0.31,0.17 0.13,0.27 -0.17,0.1 -0.34,-0.17 -0.13,-0.27zm0.74 -0.32c0,-0.17 0.15,-0.43 0.22,-0.59 0.3,-0.65 0.13,-0.5 0.81,-0.76 0.3,-0.11 0.3,-0.06 0.59,0.04 0.11,0.04 0.19,0.07 0.3,0.11 0.14,0.05 0.14,0.05 0.2,0.18l0.4 0.79c0.03,0.07 0.13,0.2 0.07,0.27 -0.03,0.04 -0.36,0.35 -0.42,0.36 -0.06,-0.04 -0.25,-0.24 -0.32,-0.31l-0.63 -0.63c-0.26,-0.26 -0.22,-0.17 -0.25,-0.36 -0.05,-0.02 -0.15,-0.04 -0.22,-0.01 -0.02,0.03 -0.05,0.29 -0.07,0.36 -0.06,0.2 -0.19,0.42 -0.35,0.53 -0.13,0.09 -0.21,0.08 -0.33,0.02zm-0.7 0.75c0.01,0.32 0.09,0.25 0.24,0.35 0.01,0.17 -0.01,0.24 0.12,0.32 0.15,0.1 0.2,0.04 0.33,-0.01l0.03 0.04c0.03,0.04 0.03,0.07 0.09,0.11 0.05,0.04 0.12,0.06 0.2,0.06 0.15,0.01 0.32,0.08 0.41,-0.05 -0.04,-0.12 -0.17,-0.1 -0.17,-0.28 0.09,0.04 0.26,0.27 0.36,0.33 0.18,0.12 0.43,-0.02 0.47,-0.15 0,-0.03 -0.38,-0.39 -0.45,-0.46 -0.04,-0.05 -0.16,-0.13 -0.12,-0.17 0.05,-0.05 0.24,0.17 0.3,0.24 0.1,0.1 0.19,0.18 0.28,0.28 0.13,0.13 0.27,0.32 0.54,0.06 0.03,-0.04 0.1,-0.12 0.11,-0.18 0,-0.05 -0.47,-0.49 -0.57,-0.59 -0.03,-0.03 -0.06,-0.05 -0.03,-0.09 0.06,-0.01 0.08,0.04 0.17,0.13 0.06,0.06 0.1,0.1 0.16,0.16 0.06,0.06 0.27,0.29 0.33,0.31 0.17,0.08 0.33,-0.1 0.36,-0.22 0.08,-0.26 -0.13,-0.33 -0.18,-0.44 0.07,-0.11 0.43,-0.37 0.46,-0.45 0.02,-0.07 -0.04,-0.16 -0.07,-0.22l-0.5 -1c-0.04,-0.08 -0.08,-0.1 -0.17,-0.13 -0.15,-0.05 -0.29,-0.11 -0.45,-0.16 -0.19,-0.07 -0.25,-0.12 -0.46,-0.03 -1.23,0.47 -0.2,0.04 -1.45,0.16 -0.16,0.01 -0.24,0.19 -0.31,0.3l-0.5 0.71c-0.17,0.24 -0.21,0.22 0.12,0.53 0.05,0.05 0.12,0.08 0.1,0.18 -0.01,0.1 0,0.19 0.05,0.25 0.05,0.05 0.14,0.07 0.2,0.11z"/>
 </g>
</svg>
