<?xml version="1.0" encoding="UTF-8"?>
<!DOCTYPE svg PUBLIC "-//W3C//DTD SVG 1.1//EN" "http://www.w3.org/Graphics/SVG/1.1/DTD/svg11.dtd">
<!-- Creator: CorelDRAW 2021 (64-Bit) -->
<svg xmlns="http://www.w3.org/2000/svg" xml:space="preserve" width="174px" height="174px" version="1.1" style="shape-rendering:geometricPrecision; text-rendering:geometricPrecision; image-rendering:optimizeQuality; fill-rule:evenodd; clip-rule:evenodd"
viewBox="0 0 17.94 17.94"
 xmlns:xlink="http://www.w3.org/1999/xlink"
 xmlns:xodm="http://www.corel.com/coreldraw/odm/2003">
 <defs>
  <style type="text/css">
   <![CDATA[
    .fil0 {fill:#FEFEFE}
   ]]>
  </style>
 </defs>
 <g id="Capa_x0020_1">
  <metadata id="CorelCorpID_0Corel-Layer"/>
  <path class="fil0" d="M8.97 0c4.95,0 8.97,4.02 8.97,8.97 0,4.95 -4.02,8.97 -8.97,8.97 -4.95,0 -8.97,-4.02 -8.97,-8.97 0,-4.95 4.02,-8.97 8.97,-8.97zm-0.55 12.17l0 -6.4 -4.6 -0.6 0.01 7.6 4.59 -0.6zm1.27 -1.06l0.21 0 1.3 0 0.19 0 0.01 0.48 -0.06 0 -1.65 0 0 -0.48zm-0.2 0.65l3.33 -0.01 -0.01 -0.82 -0.22 0 -2.88 0 -0.22 0.01 0 0.82zm0.2 -3.02l0.26 -0.01 1.45 0 0 0.48 -1.55 0 -0.16 -0.02 0 -0.45zm-0.2 0.66l3.33 -0.02 -0.01 -0.82 -0.22 0 -2.88 -0.01 -0.22 0.02 0 0.83zm1.37 -1.82l0.2 0 1.3 0 0.2 0 0.01 0.48 -1.71 -0.01 0 -0.47zm-1.37 0.66l3.33 -0.02 -0.01 -0.81 -0.22 -0.01 -2.88 0 -0.22 0.01 0 0.83zm1.38 1.71l0.19 0 1.31 0 0.18 0 0.02 0.48 -1.71 0 0.01 -0.48zm-1.38 0.66l3.33 -0.02 -0.01 -0.82 -0.22 0 -2.88 0 -0.22 0.01 0 0.83zm4.07 -1.33c-0.05,-0.75 -0.01,-2.52 0,-3.64l0 -0.59c0,-0.12 -0.01,-0.22 -0.01,-0.29 -0.07,0 -0.16,-0.01 -0.26,-0.01l-0.49 0c-0.47,0.01 -0.98,0.03 -1.19,0.01 -0.11,-0.01 -0.15,0 -0.17,-0.01l-0.11 0 0 -0.23 2.46 0 0 0.02 0 0.21 0 5.26 -0.23 0 0 -0.73zm-6.24 -3.8c1.06,0.31 4.38,0.17 5.68,0.16 0.05,0.47 0.05,6.32 0,6.65 -1.23,-0.01 -4.71,-0.13 -5.68,0.17l0.01 1.41 6.79 0.01 -0.01 -9.82 -6.79 0.01 0 1.41z"/>
 </g>
</svg>
