<?xml version="1.0" encoding="UTF-8"?>
<!DOCTYPE svg PUBLIC "-//W3C//DTD SVG 1.1//EN" "http://www.w3.org/Graphics/SVG/1.1/DTD/svg11.dtd">
<!-- Creator: CorelDRAW 2021 (64-Bit) -->
<svg xmlns="http://www.w3.org/2000/svg" xml:space="preserve" width="287px" height="288px" version="1.1" style="shape-rendering:geometricPrecision; text-rendering:geometricPrecision; image-rendering:optimizeQuality; fill-rule:evenodd; clip-rule:evenodd"
viewBox="0 0 72.94 73.22"
 xmlns:xlink="http://www.w3.org/1999/xlink"
 xmlns:xodm="http://www.corel.com/coreldraw/odm/2003">
 <defs>
  <style type="text/css">
   <![CDATA[
    .fil0 {fill:#FEFEFE}
   ]]>
  </style>
 </defs>
 <g id="Designed_x0020_by_x0020_Freepik">
  <metadata id="CorelCorpID_0Corel-Layer"/>
  <path class="fil0" d="M11.86 10.11c-0.37,1.29 0.23,2.64 1.92,2.92l0.02 0.45c-0.87,0.14 -1.44,-0.12 -2.17,0.34 -1.11,0.72 -1.34,2.37 -0.47,3.4 0.87,1.02 1.44,0.44 1.52,0.91 0.07,0.41 -0.24,0.33 -0.39,0.37 -1.64,0.35 -2.17,2.53 -1.05,3.72 0.32,0.35 0.58,0.5 1.04,0.61 0.07,0.02 0.16,0.04 0.23,0.06 0.18,0.07 0.05,0 0.17,0.09l-0.01 0.39c-1.01,0.1 -1.62,0.62 -1.91,1.48 -0.33,1.02 0.07,1.95 0.63,2.45 0.75,0.69 1.63,0.52 2.81,0.52l10.08 -0.01c1.14,0 2.21,-0.2 2.78,0.57 0.52,0.7 0.28,2.06 0.31,3.03 3.64,0.03 6.36,-5.79 14.41,-6l1.17 -0.06c0.01,-0.03 0.04,-0.02 0.06,-0.03 0.3,-0.48 -0.07,-12.35 0.17,-14.28 -3.79,0.03 -5.53,-0.08 -8.72,-1.35 -3.07,-1.23 -5.43,-1.11 -8.97,-1.11 -3.36,0 -6.72,0 -10.08,0 -1.28,0 -3.04,-0.29 -3.55,1.53zm11.51 50.16c0.22,2.21 2.77,2.57 3.93,1.28 0.69,-0.76 0.52,-1.62 0.52,-2.81l-0.01 -10.08c0,-1.14 -0.19,-2.22 0.57,-2.78 0.71,-0.52 2.05,-0.29 3.03,-0.31 0.05,-2.1 -3.02,-5.58 -3.88,-6.99 -1.09,-1.81 -1.8,-3.96 -2.03,-6.14 -0.1,-0.98 -0.06,-1.48 -0.15,-2.46 -0.04,-0.42 -12.33,0.03 -14.31,-0.23 0.04,3.86 -0.09,5.6 -1.4,8.83 -1.22,3.01 -1.06,5.69 -1.06,9.17 0,3.41 0,6.82 0,10.23 0,0.9 -0.11,1.56 0.34,2.24 0.72,1.09 2.43,1.32 3.49,0.31 1.03,-0.99 0.08,-1.37 1.08,-1.39 0.13,0.84 -0.11,1.48 0.33,2.16 0.76,1.17 2.44,1.3 3.4,0.48 1.03,-0.89 0.44,-1.44 0.91,-1.52 0.49,-0.08 0.26,0.29 0.49,0.79 0.56,1.28 2.51,1.71 3.64,0.61 1.06,-1.02 0.08,-1.41 1.11,-1.39zm38.23 -6.47l0.16 -0.07c0.23,-0.91 0.48,-1.4 -0.04,-2.35 -0.55,-1.01 -1.39,-0.91 -1.72,-1.14l0 -0.37c1.21,-0.18 1.89,-0.88 2.02,-2.14 0,-0.27 0.04,-0.39 -0.11,-0.57 0.02,-0.72 -0.67,-1.38 -1.19,-1.61 -0.69,-0.3 -7,-0.15 -8.02,-0.15 -8.26,0 -7.27,0.56 -7.41,-3.59 -2.16,-0.04 -5.53,3.01 -7,3.88 -2.25,1.33 -4.74,2.05 -7.42,2.12 -0.34,0.01 -0.79,-0.04 -1.11,0.04 -0.02,0 -0.05,0.04 -0.06,0.02 -0.34,-0.58 -0.05,12.8 -0.23,14.3 3.89,-0.03 5.51,0.1 8.78,1.39 3.05,1.2 5.46,1.08 8.99,1.08 3.36,0 6.72,0 10.08,0 0.78,0 1.78,0.12 2.38,-0.2 1.29,-0.66 1.52,-2.37 0.76,-3.39 -0.52,-0.7 -0.68,-0.6 -1.59,-0.89l-0.01 -0.43c0.86,-0.12 1.46,0.12 2.16,-0.34 1.12,-0.72 1.34,-2.36 0.47,-3.39 -0.87,-1.03 -1.43,-0.44 -1.51,-0.91 -0.06,-0.33 0.16,-0.31 0.2,-0.33 0.04,-0.01 1.29,-0.23 1.42,-0.96zm-15.16 19.42l14.33 -0.03 -0.01 -7.78c-0.35,0.13 -0.57,0.42 -1.19,0.59 -0.77,0.21 -11.81,0.06 -13.16,0.11l0.03 7.11zm18.69 -61.04c0.21,0.47 0.43,0.53 0.6,1.19 0.17,0.67 0.09,4.72 0.09,5.58 0,1.65 -0.08,6.3 0.01,7.58l7.11 -0.03 -0.03 -14.33 -7.78 0.01zm-65.1 48.87l7.78 -0.01c-0.16,-0.35 -0.45,-0.59 -0.6,-1.2 -0.25,-0.97 0.05,-11.11 -0.11,-13.15l-7.1 0.03 0.03 14.33zm11.86 -53.24c0.92,-0.24 0.04,-0.69 2.99,-0.69 3.37,0 8.34,0.13 11.36,-0.01l0.01 -7.1 -14.35 -0.01 -0.01 7.81zm29.36 19.84c-0.05,1.73 2.36,4.88 3.12,5.93 0.83,1.12 1.09,1.53 1.68,2.87 0.45,1.02 0.79,2.27 0.99,3.48 0.56,3.36 -0.46,3.47 1.12,3.45 2.14,-0.02 12.06,-0.1 13.45,0.09 -0.06,-3.68 0.11,-5.68 1.36,-8.73 1.23,-3 1.11,-5.51 1.11,-8.97 0,-3.36 0,-6.72 0,-10.08 0,-0.73 0.1,-1.79 -0.18,-2.4 -0.24,-0.52 -0.69,-0.96 -1.35,-1.15 -1.29,-0.36 -2.69,0.24 -2.92,1.92l-0.46 0.02c-0.13,-0.84 0.11,-1.48 -0.34,-2.17 -0.73,-1.13 -2.38,-1.33 -3.39,-0.47 -1.05,0.89 -0.44,1.43 -0.91,1.52 -0.41,0.07 -0.34,-0.24 -0.37,-0.39 -0.38,-1.73 -2.62,-2.12 -3.73,-1.06 -0.73,0.7 -0.51,1.15 -0.75,1.45l-0.39 -0.01c-0.24,-2.24 -2.78,-2.56 -3.94,-1.29 -0.68,0.76 -0.51,1.64 -0.51,2.82l0.01 10.08c0,1.14 0.19,2.22 -0.57,2.78 -0.71,0.52 -2.05,0.28 -3.03,0.31z"/>
 </g>
</svg>
