<?xml version="1.0" encoding="UTF-8"?>
<!DOCTYPE svg PUBLIC "-//W3C//DTD SVG 1.1//EN" "http://www.w3.org/Graphics/SVG/1.1/DTD/svg11.dtd">
<!-- Creator: CorelDRAW 2021 (64-Bit) -->
<svg xmlns="http://www.w3.org/2000/svg" xml:space="preserve" width="226px" height="109px" version="1.1" style="shape-rendering:geometricPrecision; text-rendering:geometricPrecision; image-rendering:optimizeQuality; fill-rule:evenodd; clip-rule:evenodd"
viewBox="0 0 18.02 8.66"
 xmlns:xlink="http://www.w3.org/1999/xlink"
 xmlns:xodm="http://www.corel.com/coreldraw/odm/2003">
 <defs>
  <style type="text/css">
   <![CDATA[
    .fil0 {fill:#FEFEFE}
   ]]>
  </style>
 </defs>
 <g id="Designed_x0020_by_x0020_Freepik">
  <metadata id="CorelCorpID_0Corel-Layer"/>
  <path class="fil0" d="M11.1 4.45l-0.67 -0.67c-0.62,-0.61 -0.75,-0.41 -1.84,0.1 -0.34,0.16 -0.6,0.31 -1.04,0.15 -0.3,-0.12 -0.55,-0.36 -0.64,-0.69 -0.14,-0.44 0.02,-0.78 0.22,-1.03 0.13,-0.16 0.57,-0.41 0.79,-0.54 0.15,-0.08 0.28,-0.16 0.43,-0.24 0.13,-0.08 0.31,-0.16 0.43,-0.24 -0.11,-0.16 -0.37,-0.3 -0.62,-0.35 -0.28,-0.06 -0.56,-0.02 -0.82,0.07 -0.96,0.3 -1.47,0.89 -1.98,0.92 -0.52,0.02 -1.6,-0.58 -2.18,-0.72l-0.97 3.5c0.16,0.03 1.36,0.43 1.61,0.51 0.15,0.05 0.39,0.15 0.53,0.18 0.04,-0.18 0.21,-0.4 0.3,-0.48 0.14,-0.12 0.29,-0.22 0.5,-0.28 0.44,-0.13 0.98,0.04 1.16,0.3 0.23,0.33 0.16,0.4 0.31,0.46 0.18,0.07 0.36,0.22 0.44,0.34 0.05,0.07 0.11,0.15 0.14,0.25 0.06,0.17 0.05,0.1 0.21,0.18 0.17,0.09 0.3,0.21 0.4,0.37 0.19,0.29 0.04,0.28 0.23,0.36 0.23,0.09 0.39,0.23 0.52,0.44 0.31,0.49 -0.02,0.64 0.27,0.89 0.07,0.06 0.12,0.14 0.19,0.19 0.45,0.3 1.1,-0.31 0.49,-0.85 -0.08,-0.08 -0.47,-0.52 -0.5,-0.63 0.12,0.03 0.72,0.64 0.87,0.8 0.07,0.06 0.08,0.09 0.19,0.13 0.37,0.16 0.76,-0.2 0.63,-0.59 -0.06,-0.19 -0.2,-0.25 -0.31,-0.36 -0.12,-0.14 -0.58,-0.5 -0.63,-0.68 0.17,0.03 0.75,0.59 0.94,0.75 0.11,0.1 0.33,0.4 0.69,0.22 0.14,-0.07 0.26,-0.21 0.25,-0.44 -0.01,-0.23 -0.23,-0.43 -0.4,-0.61 -0.11,-0.12 -0.43,-0.44 -0.43,-0.57 0.16,0.06 0.69,0.61 0.84,0.75 0.34,0.34 0.96,-0.01 0.77,-0.51 -0.04,-0.13 -0.39,-0.46 -0.49,-0.55 -0.04,-0.04 -0.07,-0.06 -0.11,-0.11 -0.04,-0.05 -0.05,-0.06 -0.1,-0.1l-0.62 -0.62zm-5.06 1.39c0.03,-0.2 0.04,-0.3 -0.05,-0.47 -0.21,-0.38 -0.77,-0.38 -1.08,0.01 -0.13,0.17 -0.33,0.54 -0.16,0.82 0.22,0.4 0.6,0.16 0.76,0.15 -0.09,0.24 -0.2,0.45 0,0.67 0.22,0.24 0.39,0.12 0.7,0.05 -0.07,0.29 -0.22,0.46 0.03,0.7 0.19,0.18 0.47,0.08 0.72,0.01 -0.03,0.15 -0.14,0.25 -0.14,0.44 -0.01,0.44 0.57,0.58 1.06,0.27 0.54,-0.35 0.44,-1.28 -0.45,-1.14 0.13,-0.52 -0.15,-0.85 -0.69,-0.79 0.08,-0.52 -0.18,-0.78 -0.7,-0.72zm-5.07 -1.42c-0.07,-0.4 0.47,-0.45 0.54,-0.12 0.07,0.38 -0.48,0.46 -0.54,0.12zm1.92 -3.36c0.09,-0.34 -0.15,-0.46 -0.4,-0.53 -0.25,-0.07 -0.49,-0.15 -0.74,-0.22 -0.19,-0.05 -0.52,-0.17 -0.66,0.16l-0.65 2.22c-0.14,0.49 -0.3,0.99 -0.42,1.48 -0.04,0.15 -0.01,0.28 0.07,0.37 0.13,0.14 0.51,0.21 0.71,0.27 0.11,0.03 0.25,0.08 0.36,0.1 0.13,0.03 0.25,0.09 0.41,0.06 0.31,-0.06 0.36,-0.58 0.47,-0.96 0.28,-0.98 0.59,-1.97 0.85,-2.95zm13.83 2.71c0.32,-0.12 0.51,0.4 0.16,0.52 -0.32,0.11 -0.54,-0.38 -0.16,-0.52zm-2.08 -2.86c0.01,0.11 0.25,0.58 0.31,0.72 0.1,0.23 0.22,0.46 0.32,0.69 0.29,0.66 0.65,1.42 0.95,2.08 0.14,0.29 0.33,0.38 0.63,0.23 0.14,-0.07 0.97,-0.44 1.02,-0.48 0.08,-0.08 0.17,-0.19 0.14,-0.36 -0.02,-0.14 -0.81,-1.84 -0.93,-2.1l-0.64 -1.39c-0.14,-0.31 -0.33,-0.37 -0.63,-0.23 -0.23,0.1 -0.46,0.21 -0.69,0.31 -0.24,0.11 -0.51,0.19 -0.48,0.53zm-1.18 1.11c-0.56,0.19 -0.8,0.3 -1.17,-0.02l-0.84 -0.72c-0.31,-0.28 -0.66,-0.55 -1.08,-0.35l-2.02 1.12c-0.25,0.13 -0.8,0.42 -0.94,0.62 -0.29,0.4 0.04,0.87 0.42,0.93 0.35,0.06 0.86,-0.3 1.13,-0.43 0.17,-0.08 0.36,-0.18 0.53,-0.27 0.41,-0.22 0.71,-0.37 1.11,0.04 0.13,0.14 0.25,0.25 0.39,0.38l0.78 0.79c0.07,0.07 0.13,0.11 0.21,0.18l0.59 0.6c0.32,0.29 0.4,0.5 1.1,0.37 0.26,-0.05 1.83,-0.92 2.08,-1.06l-1.13 -2.61 -1.16 0.43z"/>
 </g>
</svg>
