<?xml version="1.0" encoding="UTF-8"?>
<!DOCTYPE svg PUBLIC "-//W3C//DTD SVG 1.1//EN" "http://www.w3.org/Graphics/SVG/1.1/DTD/svg11.dtd">
<!-- Creator: CorelDRAW 2021 (64-Bit) -->
<svg xmlns="http://www.w3.org/2000/svg" xml:space="preserve" width="289px" height="215px" version="1.1" style="shape-rendering:geometricPrecision; text-rendering:geometricPrecision; image-rendering:optimizeQuality; fill-rule:evenodd; clip-rule:evenodd"
viewBox="0 0 57.01 42.39"
 xmlns:xlink="http://www.w3.org/1999/xlink"
 xmlns:xodm="http://www.corel.com/coreldraw/odm/2003">
 <defs>
  <style type="text/css">
   <![CDATA[
    .fil0 {fill:#FEFEFE}
   ]]>
  </style>
 </defs>
 <g id="Designed_x0020_by_x0020_Freepik">
  <metadata id="CorelCorpID_0Corel-Layer"/>
  <path class="fil0" d="M11.66 24.73l-0.91 0.02 0.05 -7.91 0.89 0.02 -0.03 7.87zm3.3 -19.05c-0.62,0.36 -1.72,0.57 -2.21,2.16 -0.81,2.6 1.8,4.94 4.26,3.93 0.96,-0.4 1.88,-1.34 1.96,-2.62l-0.1 -1.34c-0.47,-1.22 -1.06,-1.68 -2.24,-2.13l-1.67 0zm9.7 14.96l-1.56 1c0,0.73 -0.15,1.43 0.41,1.82 0.46,0.26 14.27,0.11 16.77,0.11 2.72,0 0.83,-0.06 4.46,-1.26l0.04 -14.49c-0.02,-0.02 -0.05,-0.05 -0.06,-0.06l-0.55 -0.55c-0.94,0.17 -15.72,0.04 -18.51,0.04 -3.1,0 -2.51,-0.44 -2.56,4.8 -0.01,1.04 -0.1,0.85 0.42,1.47 0.61,0.74 0.4,0.9 0.81,1.09 0.56,-0.44 0.33,-1.08 0.33,-2.67 0,-1.04 0,-2.09 0,-3.13l18.56 0 -0.04 13.27 -18.51 -0.02 -0.01 -1.42zm27.25 12.86c-0.31,0.36 -0.84,0.77 -1.23,1.11 -0.44,0.4 -0.75,0.66 -1.19,1.04 -0.39,0.34 -0.86,0.71 -1.28,1.07l-1.14 0.97c-0.01,-0.02 -0.04,0.03 -0.06,0.04 -0.08,0.08 -0.13,0.14 -0.24,0.22 -0.25,0.18 -0.08,0.08 -0.27,0.14 -0.33,0.69 -0.79,0.52 -1.33,0.23 -0.25,-0.88 -0.09,-4.39 -0.1,-5.63 -0.02,-0.97 0.01,-1.94 0,-2.9 -0.01,-1.05 -0.21,-1.89 0.36,-2.43 0.9,-0.14 1.03,0.17 1.43,0.64 0.52,0.34 1.06,0.87 1.58,1.32 0.52,0.44 0.95,0.83 1.49,1.3 1.37,1.18 3.1,2.14 1.98,2.88zm-6.93 -9.78c-0.14,0.12 -0.01,0.03 -0.24,0.15l-1.23 0.44c-0.17,0.15 -0.89,0.52 -1.13,0.67 -4.62,2.91 -4.1,7.57 -4.37,8.58 0.07,0.11 0.06,0.06 0.12,0.25 0,0 0.03,0.21 0.03,0.21 0.17,3.2 2.55,5.87 4.56,7.04 1.17,0.69 2.77,1.28 4.47,1.33 2.84,0.08 4.02,-0.93 4.72,-0.95 0.28,-0.4 0.55,-0.41 1.11,-0.81 0.59,-0.43 1.44,-1.2 1.89,-1.78 0.33,-0.42 0.49,-0.77 0.82,-1.01 0.07,-0.59 1.08,-1.85 1.17,-3.59l0.11 -1.45c-0.12,-1.38 -0.2,-2.15 -0.67,-3.35l-0.78 -1.67c-0.22,-0.11 -0.62,-0.77 -0.8,-0.99 -1.14,-1.43 -2.29,-1.82 -3.14,-2.44l-1.54 -0.63c-0.51,0.05 -1.78,-0.27 -2.55,-0.27 -0.77,0.01 -2.04,0.33 -2.55,0.27zm-16.81 12.56c0.2,0.07 0.13,-0.14 0.18,0.21 0.24,0.22 0.92,1.26 1,1.63l-7.22 0c0.09,-0.38 0.37,-0.69 0.57,-1.03 0.87,-1.43 0.4,-0.93 4.42,-0.98 0.13,-0.01 0.57,-0.02 0.67,-0.01 0.47,0.07 0.32,-0.13 0.38,0.18zm-24.93 -5.16c-0.11,0.34 -0.21,0.5 -0.38,0.85 -0.16,0.33 -0.17,0.51 -0.36,0.74 -0.23,0.7 -0.58,1.28 -0.85,1.95 -1.76,4.29 -2.08,2.78 -1.12,5.63l38.78 -0.01c-0.24,-0.47 -0.55,-0.74 -0.86,-1.19 -0.48,-0.72 -1.06,-1.88 -1.32,-2.7 -0.13,-0.44 -0.13,-1.15 -0.53,-1.36l-33.1 -0.04c0.25,-0.48 0.48,-1.24 0.71,-1.89 0.24,-0.67 0.52,-1.35 0.7,-2.01l31.91 0 0.22 -1.3 -33.21 0.01 -0.59 1.32zm1.69 -3.47l33.02 0.02c0.31,-0.56 0.6,-1.05 1,-1.55 0.39,-0.48 0.93,-0.92 1.18,-1.32l-20.04 0 0 -8.03 0.85 0.02c0.12,0.94 -0.13,2.11 0.15,2.96 0.23,0.5 0.58,0.92 1.34,0.91 0.62,-0.01 1.09,-0.45 1.52,-0.74 0.74,-0.49 1.87,-1.39 2.68,-1.76 0.91,-0.81 1.58,-0.57 1.38,-2.32 1.12,-0.63 2.91,-2.06 4.11,-2.91 0.35,-0.24 1.04,-0.67 1.32,-0.97 -0.13,-0.17 -0.27,-0.35 -0.41,-0.5 -0.88,0.45 -5.12,3.71 -5.4,3.77 -0.43,0.08 -0.78,-0.43 -1.53,-0.07 -0.79,0.37 -1.55,1.18 -2.32,1.49 0.1,-1.77 -0.77,-2.7 -1.85,-3.33 -1.39,-0.8 -2.61,-0.71 -4.52,-0.71 -0.16,0.38 -0.51,0.89 -0.73,1.27 -0.15,0.24 -0.26,0.4 -0.39,0.62l-0.48 0.6c-0.32,-0.84 -1.13,-1.67 -1.41,-2.49 -3.37,0 -5.13,0.08 -6.28,2.64 -0.13,-0.43 -0.03,-5.45 -0.03,-6.3l0.01 -5.43c-0.01,-0.37 -0.12,-0.6 0.16,-0.73l38.79 0 0 19.19c1.24,-0.09 2.03,0.12 3.16,0.25l0 -22.23 -45.3 0 0.02 27.65z"/>
 </g>
</svg>
