<?xml version="1.0" encoding="UTF-8"?>
<!DOCTYPE svg PUBLIC "-//W3C//DTD SVG 1.1//EN" "http://www.w3.org/Graphics/SVG/1.1/DTD/svg11.dtd">
<!-- Creator: CorelDRAW 2021 (64-Bit) -->
<svg xmlns="http://www.w3.org/2000/svg" xml:space="preserve" width="213px" height="202px" version="1.1" style="shape-rendering:geometricPrecision; text-rendering:geometricPrecision; image-rendering:optimizeQuality; fill-rule:evenodd; clip-rule:evenodd"
viewBox="0 0 21.07 19.97"
 xmlns:xlink="http://www.w3.org/1999/xlink"
 xmlns:xodm="http://www.corel.com/coreldraw/odm/2003">
 <defs>
  <style type="text/css">
   <![CDATA[
    .fil0 {fill:#FEFEFE}
   ]]>
  </style>
 </defs>
 <g id="Designed_x0020_by_x0020_Freepik">
  <metadata id="CorelCorpID_0Corel-Layer"/>
  <path class="fil0" d="M9.01 18.51l0.01 0 0 0.01 -0.01 -0.01zm2.89 0.01l0 0 -1.97 0 -0.18 0c-0.04,0.03 -0.1,0.11 -0.18,0l-0.2 0c-0.05,0 -0.11,0 -0.19,0l0 0 0.16 0c0.01,-0.01 0.02,-0.03 0.03,-0.02 0,0.01 0.02,-0.01 0.02,-0.01l0.23 -0.15c0.09,-0.08 0.14,-0.13 0.2,-0.25 0.18,-0.34 0.1,-2.28 0.1,-2.74 0,-1.26 0,-2.53 0,-3.79l1.23 0 0 5.64c0,0.53 -0.03,0.96 0.43,1.22l0.15 0.1 0.17 0zm0.15 0l0.01 0 0.16 0 0.08 -0.05c0.14,-0.08 0.26,-0.16 0.36,-0.3 0.23,-0.34 0.14,-1.66 0.14,-2.25l0 -9.54 3.59 0c0.52,0 1.33,0.12 1.62,-0.22 0.33,-0.37 0.2,-0.98 -0.41,-1.08 -0.28,-0.05 -0.93,-0.02 -1.25,-0.02l-12.57 0c-0.44,0 -0.73,0.1 -0.86,0.41 -0.16,0.38 0.08,0.74 0.34,0.85 0.32,0.14 4.29,0.06 5.01,0.06l0 11.11c0,0.84 0.4,0.88 0.57,1.02 -0.83,-0.01 -2.23,-0.03 -2.43,0.03 -0.2,0.05 -0.25,0.23 -0.35,0.39 -0.25,0.39 -0.46,0.77 -0.93,0.93l-0.21 0.06c-0.11,0.04 -0.04,0 -0.11,0.04l11.4 0.01c-0.41,-0.19 -0.61,-0.24 -0.86,-0.55 -0.12,-0.14 -0.47,-0.7 -0.56,-0.9l-1.61 0 -0.19 0c-0.05,0.04 -0.09,0.11 -0.17,0l-0.2 0 -0.57 0zm-8.16 -3.3c0.94,0 1.61,0.08 2.23,-0.3 0.49,-0.3 0.92,-0.85 0.92,-1.63l-3.17 -5.72c-0.21,-0.4 -0.53,-0.32 -0.68,-0.05l-0.84 1.53c-0.32,0.64 -0.93,1.63 -1.28,2.31l-1.07 1.93c0,0.77 0.47,1.47 1.13,1.75 0.68,0.3 1.83,0.18 2.76,0.18zm2.41 -1.93l-0.54 0 -1.93 0 0 -4.4c0,0.01 0.01,0.01 0.01,0.02l0.44 0.76c0.06,0.11 0.11,0.18 0.16,0.29l0.46 0.82c0.05,0.11 0.1,0.18 0.16,0.29l1.24 2.22zm11.62 1.93c0.95,0 1.61,0.08 2.23,-0.3 0.49,-0.3 0.92,-0.85 0.92,-1.63l-3.17 -5.72c-0.21,-0.4 -0.53,-0.32 -0.67,-0.05l-2.35 4.23c-0.07,0.14 -0.13,0.23 -0.2,0.37l-0.65 1.17c0,0.77 0.47,1.47 1.13,1.75 0.68,0.3 1.83,0.18 2.76,0.18zm2.41 -1.93l-0.54 0 -1.93 0 0 -4.4 0.62 1.07c0.09,0.18 0.19,0.37 0.3,0.56l0.76 1.37c0.06,0.11 0.11,0.18 0.17,0.29 0.1,0.19 0.19,0.36 0.3,0.56l0.32 0.55zm-9.73 -9.46c0.46,-0.01 1.01,-0.26 1.3,-0.57 0.51,-0.57 0.7,-1.36 0.39,-2.1 -0.27,-0.64 -0.92,-1.16 -1.67,-1.16 -0.41,0 -0.52,0.01 -0.82,0.13 -1.46,0.55 -1.7,2.83 -0.02,3.54 0.25,0.11 0.48,0.16 0.82,0.16zm6.6 9.46l-2.43 0 2.25 -4.05c0.03,-0.05 0.04,-0.08 0.07,-0.13 0.04,-0.06 0.07,-0.1 0.11,-0.14l0 4.32zm-14.03 0l-2.43 0c0.36,-0.55 1.1,-2.03 1.5,-2.7l0.6 -1.08c0.06,-0.1 0.09,-0.15 0.15,-0.27l0.18 -0.27 0 4.32z"/>
 </g>
</svg>
