<?xml version="1.0" encoding="UTF-8"?>
<!DOCTYPE svg PUBLIC "-//W3C//DTD SVG 1.1//EN" "http://www.w3.org/Graphics/SVG/1.1/DTD/svg11.dtd">
<!-- Creator: CorelDRAW 2021 (64-Bit) -->
<svg xmlns="http://www.w3.org/2000/svg" xml:space="preserve" width="362px" height="443px" version="1.1" style="shape-rendering:geometricPrecision; text-rendering:geometricPrecision; image-rendering:optimizeQuality; fill-rule:evenodd; clip-rule:evenodd"
viewBox="0 0 83.77 102.49"
 xmlns:xlink="http://www.w3.org/1999/xlink"
 xmlns:xodm="http://www.corel.com/coreldraw/odm/2003">
 <defs>
  <style type="text/css">
   <![CDATA[
    .fil1 {fill:#FEFEFE}
    .fil0 {fill:#FEFEFE;fill-rule:nonzero}
   ]]>
  </style>
 </defs>
 <g id="Designed_x0020_by_x0020_Freepik">
  <metadata id="CorelCorpID_0Corel-Layer"/>
  <path class="fil0" d="M31.2 94.88l22.13 0c0.79,-0.58 1.27,-1.5 1.27,-2.49 0,-1 -0.5,-1.93 -1.3,-2.51l-22.07 0c-0.8,0.58 -1.29,1.51 -1.29,2.51 0,0.99 0.48,1.91 1.26,2.49zm22.19 2.61l-22.06 0c-0.81,0.58 -1.3,1.51 -1.3,2.51 0,0.99 0.48,1.91 1.27,2.49l22.12 0c0.79,-0.58 1.27,-1.5 1.27,-2.49 0,-1 -0.49,-1.93 -1.3,-2.51zm-11.12 -79.94c-7.09,0.35 -13.84,3.41 -18.6,8.44 -5.42,5.73 -7.42,14.2 -5.48,23.25 1.16,5.41 3.98,9.57 6.96,13.98 1.11,1.64 2.26,3.34 3.33,5.12 1.21,2.01 1.35,4.23 1.47,6.19 0.09,1.57 0.18,3.04 0.77,4.26 0.14,0.29 0.31,0.53 0.49,0.74l9.79 0 0.36 -10.4c-6.1,-0.59 -10.92,-7.14 -10.92,-15.1 0,-8.04 10.49,-21.85 10.94,-22.43 0.21,-0.28 0.54,-0.44 0.89,-0.44 0.35,0 0.68,0.16 0.89,0.44 0.44,0.58 10.94,14.39 10.94,22.43 0,7.96 -4.83,14.51 -10.93,15.1l0.36 10.4 9.79 0c0.19,-0.21 0.35,-0.45 0.49,-0.74 0.59,-1.22 0.68,-2.69 0.78,-4.26 0.12,-1.96 0.25,-4.18 1.46,-6.19 1.07,-1.78 2.22,-3.48 3.33,-5.12 2.98,-4.41 5.8,-8.57 6.96,-13.98 1.94,-9.05 -0.06,-17.52 -5.48,-23.25 -4.76,-5.03 -11.5,-8.09 -18.59,-8.44zm-12.33 67.23c0,0.99 0.48,1.91 1.27,2.49l22.12 0c0.79,-0.58 1.27,-1.5 1.27,-2.49 0,-1.08 -0.58,-2.08 -1.5,-2.63l-10.49 0c-0.1,0.02 -0.2,0.04 -0.3,0.04 -0.13,0.01 -0.26,-0.01 -0.39,-0.04l-10.49 0c-0.92,0.55 -1.49,1.55 -1.49,2.63zm13.01 -22.27l0.15 4.38c4.9,-0.57 8.75,-6.12 8.75,-12.86 0,-6.02 -7.05,-16.35 -9.58,-19.86 -2.54,3.52 -9.59,13.85 -9.59,19.86 0,6.74 3.86,12.29 8.76,12.86l0.15 -4.57 -4.58 -5.19c0,0 0,0 0,0l0 0 4.64 3.56 0.17 -5.09 -4.9 -5.43 4.96 3.88 0.25 -7.33c0,-0.08 0.06,-0.14 0.14,-0.14 0.08,0 0.13,0.06 0.14,0.14l0.25 7.31 4.77 -3.86 -4.72 5.43 0.18 5.18 4.6 -3.69c0.02,-0.02 0.05,-0.01 0.07,0.01 0.02,0.02 0.02,0.05 0,0.07l-4.61 5.34z"/>
  <path class="fil1" d="M64.86 20.75c0,1.82 1.29,2.78 3.15,2.78 1.42,0 7.66,-6.48 8.82,-7.64 1.4,-1.39 1.62,-1.38 1.62,-3.19 0,-1.51 -1.35,-2.41 -3.15,-2.41 -1.43,0 -7.82,6.65 -9.01,7.82 -0.7,0.69 -1.43,1.32 -1.43,2.64z"/>
  <path class="fil1" d="M54.02 1.84c-1.04,2.59 -3.68,6.62 -3.04,8.36 0.74,2.03 4.18,2.38 5.03,0.28l3.3 -6.9c1.16,-2.86 -3.86,-5.28 -5.29,-1.74z"/>
  <path class="fil1" d="M70.42 31.87c0,1.54 1.08,2.78 2.78,2.78l8.17 0.11c3.2,0 3.2,-5.55 0,-5.55l-8.55 -0.12c-1.33,0 -2.4,1.34 -2.4,2.78z"/>
  <path class="fil1" d="M18.91 20.67c0,1.82 -1.3,2.78 -3.15,2.78 -1.43,0 -7.67,-6.48 -8.83,-7.63 -1.4,-1.4 -1.62,-1.38 -1.62,-3.2 0,-1.5 1.35,-2.41 3.15,-2.41 1.44,0 7.83,6.66 9.01,7.82 0.7,0.69 1.44,1.33 1.44,2.64z"/>
  <path class="fil1" d="M29.74 1.77c1.05,2.59 3.69,6.61 3.05,8.36 -0.74,2.03 -4.19,2.38 -5.03,0.28l-3.31 -6.9c-1.16,-2.87 3.86,-5.29 5.29,-1.74z"/>
  <path class="fil1" d="M13.35 31.79c0,1.54 -1.09,2.78 -2.78,2.78l-8.17 0.12c-3.2,0 -3.2,-5.56 0,-5.56l8.54 -0.12c1.33,0 2.41,1.35 2.41,2.78z"/>
 </g>
</svg>
