<?xml version="1.0" encoding="UTF-8"?>
<!DOCTYPE svg PUBLIC "-//W3C//DTD SVG 1.1//EN" "http://www.w3.org/Graphics/SVG/1.1/DTD/svg11.dtd">
<!-- Creator: CorelDRAW 2021 (64-Bit) -->
<svg xmlns="http://www.w3.org/2000/svg" xml:space="preserve" width="184px" height="229px" version="1.1" style="shape-rendering:geometricPrecision; text-rendering:geometricPrecision; image-rendering:optimizeQuality; fill-rule:evenodd; clip-rule:evenodd"
viewBox="0 0 14.72 18.3"
 xmlns:xlink="http://www.w3.org/1999/xlink"
 xmlns:xodm="http://www.corel.com/coreldraw/odm/2003">
 <defs>
  <style type="text/css">
   <![CDATA[
    .fil0 {fill:#FEFEFE}
   ]]>
  </style>
 </defs>
 <g id="Designed_x0020_by_x0020_Freepik">
  <metadata id="CorelCorpID_0Corel-Layer"/>
  <path class="fil0" d="M6.6 8.51l-2.14 -2.08c0.22,-0.32 0.36,-0.53 0.75,-0.69l1.36 1.3 2.92 -2.9c0.43,0.18 0.38,0.24 0.74,0.62 -0.15,0.47 -3.04,3.23 -3.63,3.75zm0.03 -6.57c-5.87,1.04 -4.31,9.81 1.53,8.79 2.17,-0.38 4.08,-2.5 3.6,-5.19 -0.39,-2.16 -2.48,-4.07 -5.13,-3.6z"/>
  <path class="fil0" d="M6.59 1.28c3,-0.5 5.45,1.75 5.83,4.25 0.46,3.06 -1.72,5.45 -4.25,5.86 -6.61,1.05 -8.35,-8.97 -1.58,-10.11zm-4.34 1.2c-0.22,0.49 -0.04,1.02 -0.27,1.45 -0.2,0.4 -0.71,0.56 -0.85,0.92 -0.21,0.51 0.19,0.86 0.29,1.33 0.15,0.76 -0.29,0.78 -0.32,1.62 0.36,0.66 0.68,0.59 0.94,1.02 0.33,0.56 -0.01,1.14 0.36,1.54 0.3,0.33 0.93,0.27 1.34,0.54 0.46,0.31 0.32,0.74 0.84,1.15 0.84,0.19 1.26,-0.27 1.94,0.13 0.63,0.38 0.69,0.79 1.53,0.23 1.18,-0.8 0.67,-0.28 1.85,-0.33 0.75,-0.03 0.71,-0.79 1.17,-1.21 0.57,-0.52 1.28,-0.08 1.49,-0.91 0.3,-1.16 -0.3,-0.89 0.68,-1.73 0.76,-0.65 0.31,-0.81 0.09,-1.62 -0.23,-0.88 0.53,-1.18 0.24,-1.86 -0.24,-0.57 -0.86,-0.49 -1.01,-1.27 -0.21,-1.04 0.22,-1.14 -0.93,-1.48 -1.26,-0.38 -0.66,-0.42 -1.24,-1.15 -0.52,-0.65 -1.21,-0.02 -1.93,-0.24 -0.58,-0.18 -0.74,-0.89 -1.56,-0.49 -0.88,0.42 -0.4,0.69 -1.72,0.51 -1.02,-0.15 -0.9,0.35 -1.36,0.97 -0.56,0.76 -1.02,0.24 -1.57,0.88z"/>
  <path class="fil0" d="M0 16.16l2.68 -0.14 1.17 2.28 2.98 -5.18c-1.06,-1.32 -1.52,-0.2 -2.49,-0.62 -0.78,-0.39 -0.24,-1.03 -1.41,-1.38 -0.3,0.25 -2.74,4.47 -2.93,5.04z"/>
  <path class="fil0" d="M7.93 13.11l2.95 5.18 0.32 -0.45c0.26,-0.53 0.51,-1.37 0.84,-1.8l2.68 0.13 -2.88 -5.12c-0.97,0.28 -0.73,1.39 -1.58,1.49 -1.34,0.16 -0.87,-0.65 -2.33,0.57z"/>
 </g>
</svg>
