<?xml version="1.0" encoding="UTF-8"?>
<!DOCTYPE svg PUBLIC "-//W3C//DTD SVG 1.1//EN" "http://www.w3.org/Graphics/SVG/1.1/DTD/svg11.dtd">
<!-- Creator: CorelDRAW 2021 (64-Bit) -->
<svg xmlns="http://www.w3.org/2000/svg" xml:space="preserve" width="293px" height="262px" version="1.1" style="shape-rendering:geometricPrecision; text-rendering:geometricPrecision; image-rendering:optimizeQuality; fill-rule:evenodd; clip-rule:evenodd"
viewBox="0 0 68.21 60.86"
 xmlns:xlink="http://www.w3.org/1999/xlink"
 xmlns:xodm="http://www.corel.com/coreldraw/odm/2003">
 <defs>
  <style type="text/css">
   <![CDATA[
    .fil0 {fill:#FEFEFE}
   ]]>
  </style>
 </defs>
 <g id="Designed_x0020_by_x0020_Freepik">
  <metadata id="CorelCorpID_0Corel-Layer"/>
  <path class="fil0" d="M48.03 51.54l-2.04 0c-1.26,0.1 -2.57,0.05 -3.82,0.04 -1.9,-0.02 -1.37,0.49 -2.89,1.01 -2.45,0.86 -4.4,-0.12 -5.69,-1.45 -1.31,-1.37 -2.57,-2.56 -3.91,-3.92l-2.99 -2.96c-0.49,-0.47 -0.59,-0.64 -0.32,-1.34 1.02,-0.4 1.12,0.16 2.64,1.57l4.71 4.82c0.74,0.75 1.45,1.65 3,1.81 2.92,0.32 4.89,-2.25 4.19,-4.92 -0.43,-1.66 -3.05,-3.92 -4.26,-5.26l-9.2 -9.85c-3.24,-2.87 -11.36,-1.22 -17.32,-1.72l-0.05 -2.71 -10.08 -0.02 0 21.63 10.01 0.02 0.08 -2.8c1.04,-0.14 4.53,-0.3 5.21,0.13l11.23 10.54c4.09,4.48 5.88,4.6 11.9,4.6 3.63,0 7.26,0 10.88,0 3.26,0 7.81,0.61 9.86,-1.2 2.46,-2.16 1.59,-5.87 -0.82,-7.34 -2.08,-1.26 -7.51,-0.45 -10.32,-0.68z"/>
  <path class="fil0" d="M49.81 36.32l-0.01 -5.43 4.02 -0.01c-0.35,1.8 -2.75,4.94 -4.01,5.44zm-0.12 -32.5l0.05 5.42 3.96 0c-0.11,-1.43 -2.7,-5 -4.01,-5.42zm11.1 5.42c-0.38,-0.96 -3.94,-3.76 -5.46,-4.24 0.17,0.52 1.36,2.79 1.91,4.24l3.55 0zm-2.67 21.65l0.97 0 0.72 0.01 0.97 -0.03c0.11,0.16 0.16,-0.14 0,0.33 -0.3,0.09 -0.81,0.8 -1.1,1.07 -0.91,0.88 -3.11,2.51 -4.25,2.85 0.04,-0.1 1.35,-2.72 1.89,-4.22l0.8 -0.01zm-28.34 -3c0.24,0.97 0.8,1.93 1.31,2.6 1.01,2.23 4.31,5.19 6.53,6.59 7.55,4.79 18,3.7 24.31,-2.44 1.33,-1.29 2,-2.2 2.99,-3.6l0.12 -0.24c0.37,-0.27 1.8,-3.41 2.08,-4.22 4.08,-11.79 -3.64,-24.99 -16.78,-26.45 -8.37,-0.94 -14.72,3.43 -18,7.64 -3.21,4.12 -4.8,9.57 -4,15.14 0.16,1.1 0.91,4.38 1.44,4.98zm16.77 -24.1l-0.04 5.43 -3.96 0c0.1,-1.43 2.69,-5 4,-5.43zm-11.11 27.27c0.08,-0.14 -0.1,-0.16 0.55,-0.17 0.22,0 0.52,0.04 0.77,0.03 0.51,-0.01 1.01,-0.04 1.52,-0.05l0.75 0.02c0.55,1.55 1.85,4.11 1.88,4.23 -2.3,-0.69 -5.26,-3.96 -5.47,-4.06zm0.67 -3.45l-1.09 0.02 -1.83 0c-0.68,-1.63 -1.71,-3.89 -1.69,-5.92l5.86 -0.03c0.15,0.92 0.15,2.07 0.27,3.01 0.12,0.99 0.38,2.02 0.46,2.94l-1.98 -0.02zm27.38 -0.68l-0.35 0.64 -3.77 0.06 -1.1 -0.01c-0.01,-0.65 0.33,-2 0.43,-2.83 0.13,-0.97 0.13,-2.16 0.29,-3.09l5.86 -0.02c0.03,2.05 -1.06,4.08 -1.36,5.25zm-20.96 3.96l3.99 -0.01 0.03 5.44c-1.47,-0.58 -3.43,-3.5 -4.02,-5.43zm12.36 -3.28l-5.08 0.02 0 -5.95 5.84 0c0.22,1.17 -0.49,4.71 -0.76,5.93zm-14.2 -5.93l5.81 0 0.05 5.94 -5.09 0.01c-0.27,-1.28 -0.98,-4.75 -0.77,-5.95zm9.12 -9.21l5.1 0.04c0.34,1.99 0.73,3.75 0.8,5.92l-5.91 -0.02 0.01 -5.94zm-9.17 5.95c0.07,-2.2 0.46,-3.89 0.8,-5.94l5.11 0.01 0 5.94 -5.91 -0.01zm22.54 -5.92c0.38,1.35 1.5,2.75 1.68,5.93l-5.9 -0.05c-0.08,-2.19 -0.45,-3.85 -0.71,-5.91l4.93 0.03zm-31.7 5.93c0.2,-3.1 1.22,-4.24 1.68,-5.95l4.94 -0.01c-0.27,2.06 -0.64,3.73 -0.71,5.95l-5.91 0.01zm3.98 -9.21c0.37,-0.96 3.94,-3.77 5.45,-4.24 -0.17,0.52 -1.35,2.78 -1.9,4.24l-3.55 0z"/>
 </g>
</svg>
