<?xml version="1.0" encoding="UTF-8"?>
<!DOCTYPE svg PUBLIC "-//W3C//DTD SVG 1.1//EN" "http://www.w3.org/Graphics/SVG/1.1/DTD/svg11.dtd">
<!-- Creator: CorelDRAW 2021 (64-Bit) -->
<svg xmlns="http://www.w3.org/2000/svg" xml:space="preserve" width="313px" height="317px" version="1.1" style="shape-rendering:geometricPrecision; text-rendering:geometricPrecision; image-rendering:optimizeQuality; fill-rule:evenodd; clip-rule:evenodd"
viewBox="0 0 131.22 132.78"
 xmlns:xlink="http://www.w3.org/1999/xlink"
 xmlns:xodm="http://www.corel.com/coreldraw/odm/2003">
 <defs>
  <style type="text/css">
   <![CDATA[
    .fil0 {fill:#FEFEFE}
    .fil1 {fill:#FEFEFE;fill-rule:nonzero}
   ]]>
  </style>
 </defs>
 <g id="Designed_x0020_by_x0020_Freepik">
  <metadata id="CorelCorpID_0Corel-Layer"/>
  <path class="fil0" d="M115.1 49.71l0 3.53c0.18,2.17 0.08,4.44 0.07,6.61 -0.02,3.27 0.84,2.35 1.76,4.99 1.47,4.24 -0.22,7.62 -2.52,9.84 -2.36,2.27 -4.43,4.45 -6.77,6.76l-5.13 5.17c-0.82,0.85 -1.1,1.03 -2.32,0.57 -0.69,-1.77 0.28,-1.95 2.73,-4.58l8.32 -8.15c1.31,-1.27 2.86,-2.49 3.14,-5.19 0.54,-5.05 -3.89,-8.45 -8.5,-7.24 -2.87,0.75 -6.78,5.27 -9.11,7.37l-17.03 15.91c-4.96,5.6 -2.12,19.64 -2.98,29.95l-4.68 0.09 -0.03 17.43 37.4 0 0.03 -17.3 -4.84 -0.15c-0.23,-1.8 -0.52,-7.84 0.23,-9.02l18.23 -19.41c7.75,-7.07 7.95,-10.17 7.95,-20.58 0,-6.27 0,-12.55 0,-18.82 0,-5.64 1.05,-13.49 -2.08,-17.05 -3.73,-4.25 -10.15,-2.74 -12.68,1.43 -2.18,3.59 -0.79,12.99 -1.19,17.84zm-88.58 65.61l-4.83 0.05 -0.01 17.3 37.37 0.11 0.07 -17.45 -4.72 -0.02c-0.85,-10.23 1.93,-24.17 -2.85,-29.85l-16.85 -15.79c-1.93,-1.69 -6.44,-6.65 -8.76,-7.45 -6.45,-2.23 -13.45,5.01 -6.17,12.09l8.33 8.13c2.49,2.62 3.54,3 2.87,4.74 -1.85,0.7 -2.7,-0.99 -3.77,-2.07l-9.71 -9.7c-2.08,-2.08 -4.39,-4.36 -3.66,-8.99 0.13,-0.8 0.42,-1.7 0.74,-2.43 0.37,-0.83 0.97,-1.57 1.17,-2.04 0.69,-1.62 0.24,-4.59 0.19,-6.52 -0.12,-4.24 0.06,-8.69 0.06,-12.94 0.01,-4.23 0.66,-8.47 -1.73,-11.49 -4.24,-5.37 -14.16,-4.1 -14.15,6.19 0.01,5.04 -0.43,35.13 0.41,38.71 1,4.26 2.93,5.94 4.99,8.26 5.73,6.47 12.97,13.63 18.93,20.18 0.57,0.63 1.03,1.04 1.58,1.65 0.86,0.97 0.62,1.15 0.61,2.66 -0.02,2.04 0.14,4.72 -0.11,6.67z"/>
  <path class="fil1" d="M88.26 0c0,0 -60.88,28.49 -32.08,66.12 1.43,-12.29 6.19,-36.24 21.85,-51.66 0,0 -14.66,17.62 -15.56,48.96 0,0.01 -0.01,0.01 -0.01,0.01 0,0.02 0,0.05 0,0.08 0,0.12 -0.24,3.32 -1.35,5.4 2.19,-1.07 5.73,-2.21 7.6,-3.11 34.1,-16.65 8.56,-47.87 19.55,-65.8z"/>
 </g>
</svg>
