<?xml version="1.0" encoding="UTF-8"?>
<!DOCTYPE svg PUBLIC "-//W3C//DTD SVG 1.1//EN" "http://www.w3.org/Graphics/SVG/1.1/DTD/svg11.dtd">
<!-- Creator: CorelDRAW 2021 (64-Bit) -->
<svg xmlns="http://www.w3.org/2000/svg" xml:space="preserve" width="104px" height="104px" version="1.1" style="shape-rendering:geometricPrecision; text-rendering:geometricPrecision; image-rendering:optimizeQuality; fill-rule:evenodd; clip-rule:evenodd"
viewBox="0 0 4.23 4.23"
 xmlns:xlink="http://www.w3.org/1999/xlink"
 xmlns:xodm="http://www.corel.com/coreldraw/odm/2003">
 <defs>
  <style type="text/css">
   <![CDATA[
    .fil0 {fill:#FEFEFE}
   ]]>
  </style>
 </defs>
 <g id="Capa_x0020_1">
  <metadata id="CorelCorpID_0Corel-Layer"/>
  <path class="fil0" d="M2.11 0c1.17,0 2.12,0.95 2.12,2.11 0,1.17 -0.95,2.12 -2.12,2.12 -1.16,0 -2.11,-0.95 -2.11,-2.12 0,-1.16 0.95,-2.11 2.11,-2.11zm-1 3.22l0 0.04c0,0.01 0,0.02 0.01,0.03 0,0.02 0.09,0.16 0.1,0.17 0.07,0.1 0.18,0.03 0.23,0.03 0.01,0.03 0.02,0.06 0.03,0.09 0,0.03 0.01,0.05 0.04,0.07 0.05,0.05 0.09,0.04 0.18,0.04 0.08,0 0.13,0.01 0.17,-0.04 0.05,-0.05 0.05,-0.12 0.07,-0.16 0.06,0 0.19,0.08 0.26,-0.04l0.06 -0.11c0.04,-0.06 0.06,-0.11 0.01,-0.18 -0.01,-0.01 -0.02,-0.02 -0.03,-0.03l-0.04 -0.05c0,0 -0.01,0 -0.01,-0.01 0.01,-0.01 0.02,-0.02 0.03,-0.03 0.03,-0.03 0.06,-0.05 0.07,-0.1 0.01,-0.04 0,-0.07 -0.01,-0.1l-0.09 -0.15c-0.07,-0.1 -0.17,-0.05 -0.26,-0.04 0,-0.04 -0.03,-0.12 -0.06,-0.15 -0.05,-0.05 -0.11,-0.04 -0.18,-0.04 -0.08,0 -0.12,-0.01 -0.18,0.04 -0.04,0.04 -0.04,0.11 -0.06,0.15 -0.07,0 -0.12,-0.04 -0.19,-0.01 -0.04,0.03 -0.07,0.08 -0.1,0.13 -0.04,0.07 -0.1,0.15 0,0.24l0.06 0.06c-0.01,0.01 -0.03,0.03 -0.04,0.03 -0.01,0.02 -0.05,0.06 -0.06,0.08 -0.01,0.01 -0.01,0.03 -0.01,0.04zm0.98 -2.42c0.04,0 0.02,-0.04 0.03,-0.12 0.01,-0.22 0.32,-0.29 0.43,-0.11 0.02,0.03 0.04,0.07 0.04,0.11 0,0.03 0,0.05 0,0.08 0,0.02 0,0.03 0.01,0.04 0.01,0 0.01,0 0.02,0.01 0,0.05 -0.08,0.26 -0.13,0.3 -0.03,0.03 -0.06,0.07 -0.14,0.07 -0.09,0 -0.15,-0.07 -0.18,-0.14 -0.02,-0.05 -0.08,-0.18 -0.08,-0.24zm0.79 1.91l0 0 -0.02 -0.14c0,-0.03 0,-0.07 0.03,-0.09 0.01,0 0.02,0 0.03,0 0,-0.01 -0.02,-0.01 -0.04,-0.02 -0.04,-0.02 -0.07,-0.07 -0.08,-0.12 -0.02,-0.14 -0.04,-0.31 -0.05,-0.46l-0.03 -0.22c0,0.09 0,0.19 0,0.29 0,0.26 0.01,0.45 0.03,0.71 0,0.04 0,0.11 0.01,0.14 0,0.04 0.02,0.22 0.02,0.28l0.03 0.41c0.01,0.09 0.03,0.16 -0.04,0.23 -0.01,0.01 -0.01,0.01 -0.02,0.02 -0.09,0.04 -0.16,0.03 -0.21,-0.01 -0.05,-0.04 -0.06,-0.11 -0.07,-0.18l-0.07 -0.95c-0.01,-0.03 -0.01,-0.06 -0.04,-0.06 -0.08,-0.01 -0.02,0.12 -0.08,0.1 -0.01,0 -0.01,-0.01 -0.02,-0.01 0,-0.01 0,-0.01 -0.01,-0.02 -0.03,-0.04 -0.1,-0.07 -0.16,-0.06 -0.03,0 -0.06,0.01 -0.08,0.01 -0.05,0.01 -0.04,-0.11 -0.03,-0.15 0,-0.07 0.01,-0.29 0,-0.37 0,-0.12 0.01,-0.25 0,-0.37 0,0.01 -0.03,0.25 -0.03,0.29 -0.01,0.1 -0.02,0.2 -0.03,0.29 -0.01,0.03 -0.01,0.05 -0.01,0.08 0,0.02 -0.01,0.05 -0.02,0.06 -0.02,0 -0.05,-0.02 -0.07,-0.02 -0.03,-0.01 -0.12,-0.01 -0.15,-0.01 -0.04,0 -0.05,0.01 -0.05,-0.03 -0.01,-0.04 0,-0.1 0.01,-0.15l0.08 -0.73c0,-0.03 0.01,-0.05 0.01,-0.07 0.03,-0.07 0.09,-0.08 0.15,-0.1 0.05,-0.02 0.21,-0.06 0.26,-0.07 0.05,0 0.06,0.03 0.11,0.06 0.17,0.08 0.27,-0.04 0.3,-0.05 0.03,-0.01 0.04,0 0.07,0 0.07,0.01 0.2,0.05 0.26,0.07 0.11,0.04 0.12,0.09 0.13,0.2 0.01,0.05 0.01,0.09 0.02,0.14l0.06 0.59c0.01,0.05 0.02,0.11 0.01,0.15 -0.01,0.03 -0.03,0.05 -0.06,0.07 -0.01,0.01 -0.01,0.01 -0.01,0.03 0.02,0 0.03,0 0.05,0.02 0.02,0.01 0.01,0.03 0.02,0.05 0,0.07 0.03,0.4 0.03,0.41l0 0.03 -0.01 0.03c0,0 -0.01,0.01 -0.02,0.01 -0.01,0.01 -0.03,0.01 -0.05,0.01 -0.03,0 -0.09,0.02 -0.12,0 -0.03,-0.02 -0.02,-0.06 -0.03,-0.1 0,-0.07 -0.01,-0.15 -0.01,-0.22zm-1.42 0.39c-0.02,-0.14 0.09,-0.26 0.22,-0.27 0.14,-0.01 0.25,0.09 0.27,0.22 0.01,0.14 -0.09,0.25 -0.22,0.27 -0.14,0.01 -0.26,-0.09 -0.27,-0.22z"/>
 </g>
</svg>
