<?xml version="1.0" encoding="UTF-8"?>
<!DOCTYPE svg PUBLIC "-//W3C//DTD SVG 1.1//EN" "http://www.w3.org/Graphics/SVG/1.1/DTD/svg11.dtd">
<!-- Creator: CorelDRAW 2021 (64-Bit) -->
<svg xmlns="http://www.w3.org/2000/svg" xml:space="preserve" width="174px" height="174px" version="1.1" style="shape-rendering:geometricPrecision; text-rendering:geometricPrecision; image-rendering:optimizeQuality; fill-rule:evenodd; clip-rule:evenodd"
viewBox="0 0 67.79 67.79"
 xmlns:xlink="http://www.w3.org/1999/xlink"
 xmlns:xodm="http://www.corel.com/coreldraw/odm/2003">
 <defs>
  <style type="text/css">
   <![CDATA[
    .fil0 {fill:#FEFEFE}
   ]]>
  </style>
 </defs>
 <g id="Capa_x0020_1">
  <metadata id="CorelCorpID_0Corel-Layer"/>
  <path class="fil0" d="M33.9 0c18.72,0 33.89,15.18 33.89,33.9 0,18.72 -15.17,33.89 -33.89,33.89 -18.72,0 -33.9,-15.17 -33.9,-33.89 0,-18.72 15.18,-33.9 33.9,-33.9zm15.67 26.11l-0.02 10.88c-0.01,1.16 0.08,8.4 -0.03,8.86l-31.29 0c-0.07,-0.47 -0.02,-6.44 -0.02,-7.46 0,-0.84 -0.06,-1.61 -0.06,-2.44 0,-1.15 -0.06,-8.99 0.02,-9.92 1.27,-0.06 2.68,-0.01 3.97,-0.01l27.01 0c0.46,0 0.38,0.07 0.42,0.09zm-12.46 9.89l-2.19 1.97c-0.41,0.34 -1.98,1.81 -2.26,1.95 0.11,-0.29 1.24,-2.1 1.48,-2.5 0.83,-1.35 -0.22,-1.46 -1.46,-1.86 -0.46,-0.14 -1.61,-0.46 -1.99,-0.66 0.09,-0.17 3.29,-3.29 3.54,-3.45 -0.35,1.39 -1.67,2.52 -0.33,3.11l2.43 1.06c0.15,0.06 0.27,0.11 0.39,0.17 0.07,0.03 0.15,0.05 0.2,0.08l0.19 0.13zm-5.12 0.94l0.52 0.18 -1.37 2.28c-0.22,0.38 -0.42,0.72 -0.68,1.14 -0.27,0.43 -0.43,0.73 -0.71,1.18l-1.06 1.73c-0.7,1.12 0.31,1.59 0.87,1.3 0.22,-0.11 0.84,-0.72 1.01,-0.87 0.37,-0.34 0.6,-0.53 0.97,-0.86 0.3,-0.28 0.68,-0.59 0.97,-0.86 0.69,-0.64 1.32,-1.15 1.97,-1.75 0.71,-0.65 1.26,-1.13 1.96,-1.75 0.34,-0.29 0.65,-0.6 0.97,-0.86 0.24,-0.2 0.77,-0.76 1,-0.9 0.43,-0.33 0.94,-0.71 0.9,-1.22 -0.04,-0.6 -0.71,-0.73 -1.19,-0.95 -0.57,-0.26 -2.7,-1.13 -3.01,-1.33 0.15,-0.86 2.25,-4.76 2.19,-5.38 -0.05,-0.49 -0.62,-0.86 -1.14,-0.57 -0.18,0.1 -0.79,0.74 -0.98,0.91l-5.74 5.57c-0.16,0.15 -0.83,0.78 -0.93,0.96 -0.5,1.02 1.1,1.28 2.08,1.6 0.34,0.11 1.11,0.41 1.4,0.45zm10.59 -14.99c0.63,-0.01 2.81,-0.05 3.29,0.02l-0.01 1.94 -3.27 0 -0.01 -1.49 0 -0.47zm-20.68 -0.01l3.28 0.01 -0.01 1.96 -3.29 -0.02 0.02 -1.95zm-2.21 1.96c-1.1,0.12 -4.43,-0.16 -5.15,0.07 -0.6,0.19 -1.01,0.96 -0.57,1.64 0.45,0.7 1.11,0.41 2.06,0.5l-0.02 19.73c-0.42,0.04 -1.13,-0.05 -1.49,0.07 -0.87,0.3 -0.98,1.47 -0.24,1.95 0.35,0.22 0.86,0.18 1.32,0.18l36.71 0c0.54,0 0.94,0.05 1.3,-0.25 0.28,-0.24 0.48,-0.63 0.36,-1.13 -0.09,-0.38 -0.41,-0.69 -0.78,-0.78 -0.42,-0.09 -1.02,0.02 -1.47,-0.04l0.01 -19.73c0.92,-0.11 1.68,0.2 2.12,-0.54 0.41,-0.67 -0.03,-1.46 -0.64,-1.62 -0.62,-0.16 -4.1,0.07 -5.15,-0.05 -0.03,-0.64 -0.01,-1.33 -0.01,-1.98 0,-1.75 0.08,-2.16 -1.84,-2.16l-4 0c-0.77,0 -1.16,-0.08 -1.57,0.42 -0.35,0.41 -0.25,1.12 -0.25,1.74 0,0.65 0.03,1.35 -0.01,2l-13.01 -0.02c-0.01,-0.65 0,-1.32 0,-1.98 0,-1.81 0.01,-2.16 -1.85,-2.16l-3.99 0c-0.74,0 -1.2,-0.07 -1.59,0.41 -0.46,0.57 -0.2,2.81 -0.25,3.73z"/>
 </g>
</svg>
