<?xml version="1.0" encoding="UTF-8"?>
<!DOCTYPE svg PUBLIC "-//W3C//DTD SVG 1.1//EN" "http://www.w3.org/Graphics/SVG/1.1/DTD/svg11.dtd">
<!-- Creator: CorelDRAW 2021 (64-Bit) -->
<svg xmlns="http://www.w3.org/2000/svg" xml:space="preserve" width="174px" height="174px" version="1.1" style="shape-rendering:geometricPrecision; text-rendering:geometricPrecision; image-rendering:optimizeQuality; fill-rule:evenodd; clip-rule:evenodd"
viewBox="0 0 17.65 17.65"
 xmlns:xlink="http://www.w3.org/1999/xlink"
 xmlns:xodm="http://www.corel.com/coreldraw/odm/2003">
 <defs>
  <style type="text/css">
   <![CDATA[
    .fil0 {fill:#FEFEFE}
   ]]>
  </style>
 </defs>
 <g id="Capa_x0020_1">
  <metadata id="CorelCorpID_0Corel-Layer"/>
  <path class="fil0" d="M8.83 0c4.87,0 8.82,3.95 8.82,8.83 0,4.87 -3.95,8.82 -8.82,8.82 -4.88,0 -8.83,-3.95 -8.83,-8.82 0,-4.88 3.95,-8.83 8.83,-8.83zm-0.46 15l1.58 0c0.14,0 0.19,-0.04 0.19,-0.19l0 -6.22 -1.77 0 0 6.41zm-0.58 -6.92c0.13,0.15 0.15,0.26 0.32,0.26 3.01,0 2.58,0.15 2.58,-0.51 -0.58,-0.13 -1.91,-0.06 -2.58,-0.06 -0.21,0 -0.24,0.18 -0.32,0.31zm-0.27 7.42l0 0.31 3.47 0 -0.07 -0.56c-0.6,-0.14 -2.24,-0.07 -2.96,-0.07 -0.21,0 -0.44,0.12 -0.44,0.32zm-0.85 -9c0,0.25 0.26,0.53 0.49,0.53 0.22,0 0.49,-0.2 0.49,-0.49 0,-0.44 -0.41,-0.98 -0.46,-1.16 -0.15,0.11 -0.52,0.94 -0.52,1.12zm0.15 -2.1l1.05 0c0.22,-0.4 0.43,-0.61 0.73,-0.71l0 3.85 1.26 0 0 -4.94c-1.93,0 0.56,0 -1.26,0l0 0.04c-0.44,0.07 -0.82,0.22 -1.16,0.55 -0.36,0.35 -0.49,0.65 -0.62,1.21z"/>
 </g>
</svg>
