<?xml version="1.0" encoding="UTF-8"?>
<!DOCTYPE svg PUBLIC "-//W3C//DTD SVG 1.1//EN" "http://www.w3.org/Graphics/SVG/1.1/DTD/svg11.dtd">
<!-- Creator: CorelDRAW 2021 (64-Bit) -->
<svg xmlns="http://www.w3.org/2000/svg" xml:space="preserve" width="174px" height="174px" version="1.1" style="shape-rendering:geometricPrecision; text-rendering:geometricPrecision; image-rendering:optimizeQuality; fill-rule:evenodd; clip-rule:evenodd"
viewBox="0 0 14.86 14.86"
 xmlns:xlink="http://www.w3.org/1999/xlink"
 xmlns:xodm="http://www.corel.com/coreldraw/odm/2003">
 <defs>
  <style type="text/css">
   <![CDATA[
    .fil0 {fill:#324D81}
   ]]>
  </style>
 </defs>
 <g id="Capa_x0020_1">
  <metadata id="CorelCorpID_0Corel-Layer"/>
  <path class="fil0" d="M7.43 0c4.11,0 7.43,3.33 7.43,7.43 0,4.11 -3.32,7.43 -7.43,7.43 -4.1,0 -7.43,-3.32 -7.43,-7.43 0,-4.1 3.33,-7.43 7.43,-7.43zm-1.5 7.55c0.86,-0.75 0.84,1.08 -0.01,0.32l0.01 -0.32zm-0.63 0.26l0.02 -0.2c-0.38,-0.19 -0.38,0.39 -0.02,0.2zm1.06 0l0.02 -0.2c-0.38,-0.19 -0.38,0.39 -0.02,0.2zm2.2 2.09c0.22,0.18 0.19,-0.18 0.19,0.73 0,0.14 0,0.29 0,0.44 -0.01,0.27 -0.04,0.27 0.15,0.33 0.09,-0.19 0.04,-0.57 0.04,-0.82 0,-0.12 -0.01,-0.34 0,-0.44 0.03,-0.29 -0.02,-0.08 0.19,-0.24l0 -0.38 -0.57 0 0 0.38zm-0.95 -0.05c0.17,0.32 0.2,-0.24 0.2,0.68 -0.01,0.26 -0.06,0.68 0.04,0.87 0.23,-0.07 0.15,-0.13 0.15,-0.77 0,-0.13 -0.02,-0.32 -0.01,-0.45 0.02,-0.32 0.01,-0.13 0.19,-0.28l0.01 -0.37 -0.57 -0.02 -0.01 0.34zm-1.89 0.05c0.22,0.16 0.15,-0.04 0.19,0.19 0.04,0.21 -0.07,1.03 0.04,1.31 0.24,-0.06 0.16,-0.11 0.15,-0.77 0,-0.92 -0.03,-0.54 0.2,-0.73l0 -0.37 -0.57 -0.02 -0.01 0.39zm0.95 0c0.21,0.17 0.2,-0.19 0.19,0.92 0,0.53 -0.06,0.51 0.15,0.58 0.12,-0.25 0.04,-0.97 0.04,-1.31 0.04,-0.23 -0.02,-0.03 0.18,-0.19l0.01 -0.38 -0.57 0 0 0.38zm2.83 -0.05c0.18,0.32 0.2,-0.24 0.2,0.68 0,0.27 -0.05,0.6 0.03,0.85l1.25 0.02c0.24,0 0.25,0.04 0.33,-0.09 -0.09,-0.16 -0.05,-0.1 -0.63,-0.1 -0.26,0 -0.53,0 -0.79,0.01 0,-1.64 -0.07,-1.11 0.18,-1.32l0.01 -0.37 -0.57 -0.02 -0.01 0.34zm-4.72 0.05l0.19 0.14 0 1.17 -1.14 0c-0.24,0 -0.2,-0.04 -0.28,0.1 0.1,0.16 0.23,0.09 0.72,0.09 0.28,0 0.58,0.03 0.85,-0.02 0.09,-0.27 0.04,-0.96 0.04,-1.29 0.03,-0.22 -0.02,-0.04 0.18,-0.19l0.01 -0.39 -0.57 0.01 0 0.38zm-1.42 -1.12l0.5 0.21 0.01 -4.34c-0.07,0.01 -0.4,0.11 -0.43,0.14 -0.16,0.12 -0.08,1.42 -0.08,1.66 0,0.78 0,1.56 0,2.33zm7.63 0.2l0.52 -0.18c-0.01,-0.6 0.06,-3.67 -0.04,-3.96 -0.11,-0.09 -0.31,-0.16 -0.48,-0.19l0 4.33zm-6.59 -4.88l6.05 0.01 -0.31 -0.66 -5.41 0 -0.33 0.65zm0.65 3.31c0.41,-0.22 0.63,0.43 0.3,0.6 -0.37,0.19 -0.77,-0.35 -0.3,-0.6zm2.72 0.39c-0.57,0 -0.53,0.07 -0.63,-0.09 0.02,-0.13 0.12,-0.09 0.29,-0.09l2.28 0c0.36,0 0.26,0.02 0.3,0.09 -0.07,0.12 0.03,0.05 -0.11,0.09l-1.35 0c-0.26,0 -0.52,0 -0.78,0zm1.46 -1.12c-0.2,-0.03 -0.16,-0.02 -0.17,-0.27 0,-0.13 0.01,-0.26 0.03,-0.39 0.19,-0.03 0.7,-0.05 0.89,0.01 0.18,0.06 0.1,0.52 0.05,0.58 -0.08,0.09 0.1,0.03 -0.17,0.07l-0.63 0zm-4.34 -1.66c0.42,-0.1 2.24,-0.02 2.83,-0.02 1.2,0 1.04,-0.11 1.03,0.43 -0.01,0.55 0.11,1.25 -0.16,1.25l-3.59 0c-0.21,0 -0.16,-0.07 -0.16,-0.28l0.01 -1.26c0.01,-0.11 0.02,-0.08 0.04,-0.12zm4.22 0c0.16,-0.04 0.82,-0.1 0.93,0.03 0.07,0.07 0.06,0.36 0.04,0.47 -0.03,0.21 -0.1,0.15 -0.32,0.15l-0.67 -0.02c-0.02,-0.34 -0.04,-0.31 0.02,-0.63zm-5.05 -0.17l0 3.98c0,0.37 0.13,0.5 0.5,0.5l5.73 0c0.37,0 0.51,-0.13 0.51,-0.5l0 -4.03c0,-0.38 -0.13,-0.5 -0.51,-0.5l-5.68 0c-0.44,0 -0.55,0.1 -0.55,0.55z"/>
 </g>
</svg>
