<?xml version="1.0" encoding="UTF-8"?>
<!DOCTYPE svg PUBLIC "-//W3C//DTD SVG 1.1//EN" "http://www.w3.org/Graphics/SVG/1.1/DTD/svg11.dtd">
<!-- Creator: CorelDRAW 2021 (64-Bit) -->
<svg xmlns="http://www.w3.org/2000/svg" xml:space="preserve" width="104px" height="104px" version="1.1" style="shape-rendering:geometricPrecision; text-rendering:geometricPrecision; image-rendering:optimizeQuality; fill-rule:evenodd; clip-rule:evenodd"
viewBox="0 0 5.33 5.33"
 xmlns:xlink="http://www.w3.org/1999/xlink"
 xmlns:xodm="http://www.corel.com/coreldraw/odm/2003">
 <defs>
  <style type="text/css">
   <![CDATA[
    .fil0 {fill:#FEFEFE}
   ]]>
  </style>
 </defs>
 <g id="Capa_x0020_1">
  <metadata id="CorelCorpID_0Corel-Layer"/>
  <path class="fil0" d="M2.66 0c1.47,0 2.67,1.19 2.67,2.66 0,1.47 -1.2,2.67 -2.67,2.67 -1.47,0 -2.66,-1.2 -2.66,-2.67 0,-1.47 1.19,-2.66 2.66,-2.66zm-1.07 2.78c-0.08,-0.63 0.41,-1.13 0.96,-1.19 0.63,-0.07 1.13,0.4 1.19,0.96 0.07,0.63 -0.41,1.13 -0.96,1.19 -0.64,0.07 -1.12,-0.4 -1.19,-0.96zm0.41 -0.76c0.01,0.04 0.06,0.13 0.09,0.16 0.03,0.04 0.1,0.08 0.14,0.12 0.06,0.06 0.2,0.22 0.27,0.26 0.02,-0.03 0.05,-0.06 0.07,-0.08 -0.08,-0.08 -0.28,-0.26 -0.32,-0.32 -0.05,-0.1 -0.05,-0.09 -0.21,-0.18l-0.04 0.04zm0.71 0.89c0.05,0.05 0.4,0.43 0.47,0.43 0.05,0.01 0.16,-0.08 0.15,-0.15 0,-0.07 -0.38,-0.42 -0.44,-0.47 -0.05,0.03 -0.16,0.15 -0.18,0.19zm0.17 -0.03l0.03 -0.03 0.29 0.27 -0.03 0.03 -0.29 -0.27zm-0.06 0.06l0.02 -0.03 0.29 0.28 -0.03 0.03 -0.28 -0.28zm-0.7 0.16c0.09,-0.04 0.14,0.09 0.06,0.12 -0.08,0.04 -0.14,-0.08 -0.06,-0.12zm0.71 -1l0.11 0 0 0.24 -0.11 0 0 -0.24zm0.04 0.53c0.16,0.01 0.41,0.04 0.46,-0.27 -0.06,0.01 -0.14,0.06 -0.19,0.07 -0.05,0 -0.11,-0.07 -0.16,-0.1l0.03 -0.18c0.07,-0.04 0.15,-0.05 0.2,-0.1 -0.15,-0.08 -0.26,-0.1 -0.41,0 -0.18,0.12 -0.09,0.32 -0.12,0.38 -0.03,0.06 -0.65,0.54 -0.7,0.65 -0.03,0.09 0,0.17 0.05,0.22 0.12,0.11 0.25,0.02 0.34,-0.09l0.5 -0.58zm-0.83 -1.14c-0.11,-0.07 -0.2,-0.17 -0.31,-0.25 -0.17,-0.13 -0.21,0.04 -0.47,0.28 -0.06,0.05 -0.1,0.1 -0.03,0.2 0.04,0.05 0.08,0.09 0.12,0.15 0.05,0.05 0.09,0.1 0.14,0.15 0,0.06 -0.06,0.2 -0.09,0.25 -0.07,0.04 -0.23,0.03 -0.33,0.04 -0.26,0.02 -0.21,0.07 -0.21,0.54 0,0.15 0.06,0.16 0.2,0.17 0.11,0 0.23,0.02 0.34,0.02l0.1 0.25c-0.25,0.35 -0.44,0.34 -0.19,0.57 0.17,0.15 0.26,0.31 0.38,0.26 0.04,-0.02 0.15,-0.12 0.19,-0.15 0.2,-0.18 0.12,-0.16 0.4,-0.05 0.01,0.12 0.02,0.23 0.03,0.35 0.02,0.25 0.1,0.2 0.54,0.2 0.15,0 0.16,-0.07 0.17,-0.2 0.03,-0.4 -0.04,-0.31 0.27,-0.44 0.04,0.03 0.1,0.08 0.14,0.12 0.13,0.12 0.25,0.24 0.35,0.14l0.28 -0.29c0.06,-0.05 0.11,-0.1 0.04,-0.19l-0.27 -0.32c0.12,-0.32 0.03,-0.24 0.42,-0.27 0.26,-0.02 0.22,-0.05 0.22,-0.49 0,-0.24 -0.05,-0.22 -0.55,-0.25l-0.09 -0.24c0.15,-0.21 0.4,-0.36 0.25,-0.51l-0.28 -0.28c-0.16,-0.17 -0.28,0.1 -0.51,0.24l-0.24 -0.09c-0.01,-0.11 -0.03,-0.23 -0.03,-0.34 -0.02,-0.25 -0.07,-0.2 -0.54,-0.2 -0.22,0 -0.17,0.21 -0.19,0.47 -0.01,0.08 0,0.06 -0.05,0.09 -0.03,0.02 -0.17,0.07 -0.2,0.07z"/>
 </g>
</svg>
