<?xml version="1.0" encoding="UTF-8"?>
<!DOCTYPE svg PUBLIC "-//W3C//DTD SVG 1.1//EN" "http://www.w3.org/Graphics/SVG/1.1/DTD/svg11.dtd">
<!-- Creator: CorelDRAW 2021 (64-Bit) -->
<svg xmlns="http://www.w3.org/2000/svg" xml:space="preserve" width="136px" height="136px" version="1.1" style="shape-rendering:geometricPrecision; text-rendering:geometricPrecision; image-rendering:optimizeQuality; fill-rule:evenodd; clip-rule:evenodd"
viewBox="0 0 8.92 8.92"
 xmlns:xlink="http://www.w3.org/1999/xlink"
 xmlns:xodm="http://www.corel.com/coreldraw/odm/2003">
 <defs>
  <style type="text/css">
   <![CDATA[
    .fil0 {fill:#324D81}
   ]]>
  </style>
    <clipPath id="id0">
     <path d="M0 0l8.92 0 0 8.92 -8.92 0 0 -8.92z"/>
    </clipPath>
 </defs>
 <g id="Capa_x0020_1">
  <metadata id="CorelCorpID_0Corel-Layer"/>
  <g id="_2821849645200">
   <g style="clip-path:url(#id0)">
    <image x="0" y="0" width="8.92" height="8.92" xlink:href="instalación azul_Images\instalación azul_ImgID1.png"/>
   </g>
  </g>
  <path class="fil0" d="M4.46 1.03c1.89,0 3.43,1.53 3.43,3.43 0,1.89 -1.54,3.43 -3.43,3.43 -1.9,0 -3.43,-1.54 -3.43,-3.43 0,-1.9 1.53,-3.43 3.43,-3.43zm-1.38 3.59c-0.11,-0.82 0.53,-1.47 1.23,-1.54 0.81,-0.09 1.45,0.51 1.53,1.23 0.09,0.82 -0.52,1.45 -1.23,1.53 -0.82,0.09 -1.44,-0.51 -1.53,-1.22zm0.52 -0.98c0.02,0.05 0.08,0.16 0.12,0.2 0.04,0.05 0.13,0.1 0.18,0.15 0.08,0.08 0.26,0.29 0.35,0.33 0.02,-0.03 0.06,-0.07 0.09,-0.1 -0.1,-0.11 -0.36,-0.33 -0.41,-0.41 -0.07,-0.13 -0.07,-0.12 -0.27,-0.23l-0.06 0.06zm0.92 1.13c0.06,0.07 0.52,0.56 0.61,0.57 0.06,0 0.2,-0.11 0.19,-0.2 -0.01,-0.09 -0.5,-0.54 -0.57,-0.6 -0.06,0.03 -0.21,0.19 -0.23,0.23zm0.22 -0.04l0.04 -0.03 0.37 0.35 -0.04 0.04 -0.37 -0.36zm-0.08 0.09l0.03 -0.04 0.37 0.36 -0.04 0.03 -0.36 -0.35zm-0.89 0.2c0.11,-0.06 0.17,0.12 0.07,0.16 -0.11,0.04 -0.18,-0.11 -0.07,-0.16zm0.9 -1.28l0.14 0 0 0.31 -0.14 0 0 -0.31zm0.06 0.67c0.2,0.02 0.52,0.05 0.59,-0.34 -0.08,0.01 -0.19,0.08 -0.24,0.08 -0.07,0.01 -0.14,-0.08 -0.21,-0.12l0.03 -0.23c0.09,-0.06 0.2,-0.07 0.27,-0.13 -0.2,-0.1 -0.34,-0.13 -0.53,0 -0.24,0.16 -0.12,0.41 -0.16,0.49 -0.04,0.08 -0.84,0.69 -0.9,0.84 -0.04,0.11 0,0.22 0.06,0.28 0.15,0.14 0.33,0.03 0.44,-0.12l0.65 -0.75zm-1.08 -1.46c-0.14,-0.09 -0.25,-0.22 -0.39,-0.32 -0.22,-0.17 -0.27,0.05 -0.61,0.36 -0.07,0.07 -0.12,0.13 -0.04,0.25 0.05,0.07 0.11,0.12 0.16,0.19 0.06,0.07 0.11,0.14 0.18,0.19 0,0.09 -0.08,0.27 -0.12,0.33 -0.09,0.05 -0.29,0.04 -0.42,0.05 -0.34,0.03 -0.27,0.09 -0.27,0.69 0,0.2 0.07,0.21 0.25,0.22 0.15,0.01 0.3,0.03 0.44,0.04l0.13 0.31c-0.32,0.45 -0.56,0.44 -0.24,0.74 0.21,0.19 0.33,0.4 0.48,0.33 0.05,-0.02 0.2,-0.15 0.25,-0.19 0.26,-0.23 0.16,-0.2 0.52,-0.06 0.01,0.15 0.02,0.3 0.03,0.44 0.03,0.33 0.13,0.26 0.69,0.26 0.2,0 0.21,-0.08 0.22,-0.26 0.04,-0.51 -0.05,-0.39 0.35,-0.56 0.06,0.04 0.14,0.11 0.19,0.16 0.17,0.15 0.32,0.31 0.45,0.17l0.36 -0.36c0.08,-0.07 0.13,-0.13 0.05,-0.25l-0.34 -0.42c0.15,-0.4 0.03,-0.31 0.54,-0.35 0.33,-0.02 0.27,-0.06 0.27,-0.63 0,-0.3 -0.06,-0.28 -0.7,-0.31l-0.12 -0.32c0.19,-0.26 0.52,-0.46 0.32,-0.64l-0.36 -0.37c-0.21,-0.22 -0.36,0.12 -0.66,0.31l-0.31 -0.12c-0.01,-0.15 -0.03,-0.29 -0.04,-0.44 -0.02,-0.32 -0.08,-0.26 -0.69,-0.26 -0.28,0 -0.21,0.28 -0.24,0.61 -0.01,0.11 0,0.08 -0.06,0.11 -0.05,0.03 -0.23,0.1 -0.27,0.1z"/>
 </g>
</svg>
