<?xml version="1.0" encoding="UTF-8"?>
<!DOCTYPE svg PUBLIC "-//W3C//DTD SVG 1.1//EN" "http://www.w3.org/Graphics/SVG/1.1/DTD/svg11.dtd">
<!-- Creator: CorelDRAW 2021 (64-Bit) -->
<svg xmlns="http://www.w3.org/2000/svg" xml:space="preserve" width="104px" height="104px" version="1.1" style="shape-rendering:geometricPrecision; text-rendering:geometricPrecision; image-rendering:optimizeQuality; fill-rule:evenodd; clip-rule:evenodd"
viewBox="0 0 6.21 6.21"
 xmlns:xlink="http://www.w3.org/1999/xlink"
 xmlns:xodm="http://www.corel.com/coreldraw/odm/2003">
 <defs>
  <style type="text/css">
   <![CDATA[
    .fil0 {fill:#324D81}
   ]]>
  </style>
 </defs>
 <g id="Capa_x0020_1">
  <metadata id="CorelCorpID_0Corel-Layer"/>
  <path class="fil0" d="M3.11 0c1.71,0 3.1,1.39 3.1,3.11 0,1.71 -1.39,3.1 -3.1,3.1 -1.72,0 -3.11,-1.39 -3.11,-3.1 0,-1.72 1.39,-3.11 3.11,-3.11zm-0.49 4.34c-0.04,-0.18 0.2,-0.2 0.23,-0.06 0.02,0.07 -0.04,0.13 -0.09,0.14 -0.07,0.02 -0.13,-0.03 -0.14,-0.08zm2.5 -1.33c-0.04,0.1 -0.19,0.07 -0.16,-0.05 0.02,-0.1 0.2,-0.05 0.16,0.05zm0.27 0.07l-0.66 -1.33c-0.06,0 -0.22,0.09 -0.29,0.13 -0.09,0.05 -0.19,0.1 -0.19,0.23 0,0.1 0.2,0.47 0.25,0.58 0.05,0.1 0.25,0.5 0.3,0.54 0.1,0.08 0.2,0.04 0.31,-0.02 0.09,-0.04 0.19,-0.09 0.28,-0.13zm-4.14 -0.19c-0.02,0.03 -0.09,0.04 -0.13,0.02 -0.03,-0.02 -0.05,-0.08 -0.02,-0.12 0.07,-0.09 0.21,0.01 0.15,0.1zm-0.43 -0.01c0.07,0.06 0.17,0.12 0.24,0.17 0.09,0.06 0.2,0.14 0.32,0.05 0.06,-0.04 0.3,-0.4 0.37,-0.49 0.33,-0.46 0.47,-0.56 0.17,-0.78 -0.05,-0.04 -0.21,-0.16 -0.26,-0.17 -0.1,0.11 -0.32,0.46 -0.43,0.6l-0.31 0.45c-0.03,0.04 -0.1,0.12 -0.1,0.17zm1.81 1.2l-0.19 0.2c-0.11,0.08 -0.24,-0.04 -0.18,-0.15 0.02,-0.04 0.16,-0.18 0.19,-0.2 0.12,-0.08 0.23,0.06 0.18,0.15zm-0.42 -0.38c0.09,-0.05 0.2,0.03 0.18,0.12 -0.01,0.05 -0.12,0.16 -0.15,0.18 -0.09,0.05 -0.19,-0.03 -0.18,-0.12 0.01,-0.06 0.11,-0.16 0.15,-0.18zm-0.27 -0.2c0.13,-0.06 0.24,0.14 0.1,0.22 -0.13,0.07 -0.26,-0.14 -0.1,-0.22zm0.58 -0.25c0,-0.12 0.11,-0.33 0.17,-0.45 0.23,-0.51 0.1,-0.39 0.63,-0.59 0.23,-0.09 0.24,-0.05 0.46,0.03 0.08,0.02 0.15,0.05 0.23,0.08 0.11,0.04 0.11,0.04 0.16,0.15l0.31 0.61c0.02,0.05 0.1,0.15 0.06,0.21 -0.03,0.03 -0.29,0.27 -0.33,0.28 -0.05,-0.03 -0.2,-0.19 -0.25,-0.24l-0.49 -0.49c-0.21,-0.21 -0.17,-0.14 -0.2,-0.29 -0.04,-0.01 -0.11,-0.02 -0.17,-0.01 -0.02,0.03 -0.04,0.23 -0.06,0.29 -0.04,0.15 -0.14,0.32 -0.27,0.41 -0.1,0.07 -0.16,0.06 -0.25,0.01zm-0.55 0.59c0.01,0.25 0.07,0.19 0.19,0.27 0.01,0.14 -0.01,0.19 0.09,0.25 0.12,0.08 0.16,0.03 0.26,-0.01l0.02 0.03c0.03,0.04 0.03,0.06 0.07,0.09 0.04,0.03 0.09,0.05 0.16,0.05 0.12,0 0.25,0.06 0.32,-0.04 -0.03,-0.1 -0.13,-0.08 -0.14,-0.22 0.08,0.03 0.2,0.21 0.29,0.26 0.13,0.09 0.33,-0.02 0.36,-0.12 0,-0.02 -0.29,-0.3 -0.35,-0.36 -0.03,-0.03 -0.13,-0.1 -0.09,-0.13 0.04,-0.04 0.18,0.13 0.23,0.19 0.08,0.07 0.15,0.14 0.22,0.22 0.1,0.1 0.21,0.24 0.42,0.04 0.02,-0.03 0.08,-0.09 0.09,-0.14 -0.01,-0.04 -0.37,-0.38 -0.45,-0.46 -0.02,-0.02 -0.04,-0.03 -0.03,-0.07 0.05,-0.01 0.07,0.04 0.14,0.1 0.05,0.05 0.08,0.08 0.12,0.13 0.05,0.04 0.22,0.22 0.26,0.24 0.13,0.06 0.26,-0.08 0.28,-0.18 0.06,-0.19 -0.1,-0.25 -0.14,-0.34 0.06,-0.08 0.33,-0.29 0.36,-0.35 0.02,-0.05 -0.03,-0.12 -0.05,-0.16l-0.39 -0.79c-0.03,-0.06 -0.06,-0.07 -0.14,-0.1 -0.11,-0.04 -0.22,-0.08 -0.34,-0.12 -0.16,-0.05 -0.2,-0.09 -0.37,-0.03 -0.95,0.37 -0.15,0.04 -1.13,0.13 -0.12,0.01 -0.18,0.15 -0.24,0.23l-0.38 0.55c-0.14,0.19 -0.16,0.18 0.09,0.42 0.04,0.04 0.1,0.06 0.08,0.14 -0.01,0.08 0,0.15 0.04,0.19 0.04,0.05 0.11,0.06 0.15,0.09z"/>
 </g>
</svg>
