<?xml version="1.0" encoding="UTF-8"?>
<!DOCTYPE svg PUBLIC "-//W3C//DTD SVG 1.1//EN" "http://www.w3.org/Graphics/SVG/1.1/DTD/svg11.dtd">
<!-- Creator: CorelDRAW 2021 (64-Bit) -->
<svg xmlns="http://www.w3.org/2000/svg" xml:space="preserve" width="104px" height="104px" version="1.1" style="shape-rendering:geometricPrecision; text-rendering:geometricPrecision; image-rendering:optimizeQuality; fill-rule:evenodd; clip-rule:evenodd"
viewBox="0 0 4.71 4.71"
 xmlns:xlink="http://www.w3.org/1999/xlink"
 xmlns:xodm="http://www.corel.com/coreldraw/odm/2003">
 <defs>
  <style type="text/css">
   <![CDATA[
    .fil0 {fill:#324D81}
   ]]>
  </style>
 </defs>
 <g id="Capa_x0020_1">
  <metadata id="CorelCorpID_0Corel-Layer"/>
  <path class="fil0" d="M2.36 0c1.3,0 2.35,1.05 2.35,2.36 0,1.3 -1.05,2.35 -2.35,2.35 -1.31,0 -2.36,-1.05 -2.36,-2.35 0,-1.31 1.05,-2.36 2.36,-2.36zm-0.37 2.06l0.07 0 0.09 0 0.07 0 0.09 0 0.07 0 0.09 0 0.07 0 0.09 0 0.07 0 0.09 0 0.07 0 0.09 0 0.07 0 0.09 0 0.07 0 0.09 0 0.07 0 0.12 0 0 0.18 -0.12 0 -0.09 0 -0.06 0 -0.1 0 -0.06 0 -0.09 0 -0.07 0 -0.09 0 -0.07 0 -0.09 0 -0.07 0 -0.09 0 -0.07 0 -0.09 0 -0.07 0 -0.09 0 -0.07 0 -0.09 0 -0.12 0 0 -0.18 0.13 0zm0.7 1.07c-0.02,0 -0.02,0 -0.04,0 -0.02,0.01 -0.01,0.01 -0.03,0.01 -0.01,0.04 -0.01,0.05 0.02,0.07 0.02,0.01 0.05,0.02 0.07,0.03 0.1,0.02 0.14,0.15 0.07,0.22 -0.03,0.03 -0.06,0.03 -0.08,0.05l-0.01 0.07c-0.09,0.02 -0.07,-0.03 -0.07,-0.06 -0.02,-0.02 -0.09,-0.01 -0.11,-0.05 -0.01,-0.02 0.01,-0.05 0.01,-0.07l0.02 0 0.06 0.02c0.01,0 0.01,0 0.01,0 0,0 0,0.01 0,0 0,0 0.01,0.01 0.01,0.01 0.05,-0.01 0.06,0 0.08,-0.03l0.01 -0.03c-0.02,-0.05 -0.06,-0.04 -0.1,-0.07 -0.02,0 -0.06,-0.03 -0.07,-0.04 -0.02,-0.02 -0.03,-0.05 -0.03,-0.09 0,-0.08 0.05,-0.1 0.11,-0.12 0.01,-0.07 -0.02,-0.08 0.08,-0.07 0,0.02 0,0.03 0,0.04 0.01,0.05 0.04,0.02 0.1,0.05 0,0.03 -0.02,0.06 -0.02,0.08l-0.09 -0.02zm-0.15 -0.28c-0.01,0.01 0,0.01 -0.01,0.01l-0.03 0.01c-0.01,0.01 -0.02,0.01 -0.03,0.01 -0.06,0.04 -0.1,0.05 -0.16,0.14 -0.02,0.02 -0.03,0.04 -0.04,0.05 -0.01,0.05 -0.03,0.06 -0.04,0.11l-0.01 0.04 0 0.12c0.01,0.01 0,0 0.01,0.01l0.01 0.05c0,0.02 0.01,0.04 0.02,0.06 0,0.01 0.03,0.06 0.04,0.07 0.03,0.04 0.06,0.07 0.1,0.1 0.02,0.02 0.06,0.04 0.07,0.05 0.02,0 0.04,0.01 0.07,0.02 0.02,0.01 0.05,0.01 0.07,0.02l0.09 0c0.02,-0.01 0.06,-0.01 0.08,-0.02 0.03,-0.01 0.05,-0.02 0.07,-0.03 0.02,-0.01 0.05,-0.02 0.07,-0.04 0.02,-0.02 0.04,-0.03 0.06,-0.05 0.04,-0.05 0.05,-0.08 0.09,-0.14 0,-0.02 0.01,-0.05 0.02,-0.07l0.01 -0.08c-0.01,-0.03 0,-0.05 -0.01,-0.08 0,-0.02 -0.01,-0.04 -0.01,-0.06l-0.03 -0.07c-0.05,-0.09 -0.1,-0.14 -0.19,-0.19l-0.07 -0.03c0,0 -0.01,0 -0.01,0 0,-0.01 0,0 0,-0.01 -0.03,0.01 -0.08,-0.01 -0.12,-0.01 -0.04,0 -0.1,0.02 -0.12,0.01zm-1.04 -1.67c0,0.01 -0.01,0.02 -0.01,0.03 -0.01,0 -0.01,0.01 -0.01,0.01 -0.01,0.01 0,0.01 -0.01,0.02 0,0.01 -0.06,0.14 -0.07,0.15 0,0.02 -0.05,0.14 -0.07,0.16 0,0.02 -0.03,0.06 -0.04,0.09 -0.01,0.02 -0.02,0.07 -0.04,0.08 0,0.03 -0.02,0.06 -0.03,0.08 0,0.02 -0.06,0.15 -0.07,0.16l-0.07 0.15c-0.04,0.11 -0.07,0.12 -0.02,0.24 0,0.01 0,0 0,0.01 0.03,0.01 0.03,0.03 0.06,0.04 0.03,0.02 0.05,0.02 0.07,0.04 0.01,0 0.06,0.02 0.07,0.03 0.03,0 0.06,0.02 0.09,0.03l0.07 0.04c0.08,-0.01 0.07,-0.04 0.07,-0.1 0,-0.11 -0.01,-0.45 0.01,-0.51 0.01,-0.01 0.01,-0.02 0.01,-0.03 0,0 0.01,-0.02 0.01,-0.02 0.01,-0.01 0,0 0.01,-0.01 0,-0.03 0.09,-0.13 0.13,-0.13 0.01,-0.01 -0.01,0 0.01,-0.01 0.01,-0.01 0.02,-0.01 0.02,-0.01 0.01,-0.01 0.03,-0.01 0.04,-0.01 0.12,-0.03 0.25,-0.01 0.37,-0.01l0.95 0c0.08,0 0.13,0.01 0.12,-0.06 -0.01,-0.01 -0.06,-0.03 -0.07,-0.04 -0.03,-0.01 -0.06,-0.02 -0.09,-0.04 -0.03,-0.01 -0.06,-0.02 -0.09,-0.04 -0.02,-0.01 -0.13,-0.05 -0.14,-0.06 -0.06,-0.02 -0.11,-0.05 -0.16,-0.07 -0.02,-0.01 -0.03,-0.01 -0.05,-0.02 0,0 -0.01,-0.01 -0.02,-0.01 -0.02,-0.01 -0.01,0 -0.01,-0.01 -0.02,0 -0.16,-0.07 -0.18,-0.08 -0.03,-0.01 -0.11,-0.04 -0.13,-0.06 -0.06,-0.02 -0.12,-0.05 -0.18,-0.07l-0.17 -0.08c-0.02,-0.01 -0.05,-0.02 -0.08,-0.03 -0.03,-0.02 -0.06,-0.03 -0.09,-0.04l-0.05 0c-0.02,0.01 -0.04,0.02 -0.06,0.03 -0.02,0.01 -0.03,0.02 -0.04,0.04 -0.03,0.04 -0.04,0.08 -0.06,0.12zm0.15 0.78l-0.01 0.04 0 1.23c0,0 0,0.01 0,0.01l0.01 0c0.04,0.12 0.03,0.07 0.07,0.11 0.06,0.03 0.06,0.03 0.14,0.03 0.06,0 0.12,0 0.18,0 -0.01,-0.09 -0.01,-0.12 0,-0.22l-0.18 0.01 0 -0.58 1.6 0 0 0.57 -0.18 0c0,0.09 0.01,0.14 0,0.22 0.05,0.01 0.1,0 0.16,0 0.07,0 0.08,0 0.14,-0.01 0.02,-0.03 0.06,-0.04 0.08,-0.09l0.02 -0.04 0 -1.25 -0.02 -0.03c-0.02,-0.07 -0.07,-0.11 -0.16,-0.11 -0.09,-0.01 -0.19,0 -0.28,0l-1.13 0c-0.09,0 -0.19,-0.01 -0.28,0 -0.08,0 -0.13,0.04 -0.16,0.11z"/>
 </g>
</svg>
