<?xml version="1.0" standalone="no"?>
<!DOCTYPE svg PUBLIC "-//W3C//DTD SVG 20010904//EN"
 "http://www.w3.org/TR/2001/REC-SVG-20010904/DTD/svg10.dtd">
<svg version="1.0" xmlns="http://www.w3.org/2000/svg"
 width="1296.759162pt" height="309.390457pt" viewBox="0 0 1296.759162 309.390457"
 preserveAspectRatio="xMidYMid meet">
<metadata>
Created by potrace 1.12, written by Peter Selinger 2001-2015
</metadata>
<g transform="translate(-0.240838,310.804179) scale(0.100000,-0.100000)"
fill="#FFF" stroke="none">
<path d="M1290 3099 c-467 -45 -890 -298 -1146 -684 -50 -74 -104 -171 -104
-185 0 -7 458 -10 1395 -10 767 0 1395 3 1395 8 0 14 -86 159 -134 227 -114
159 -252 291 -416 398 -226 146 -450 223 -722 247 -125 11 -146 11 -268 -1z"/>
<path d="M7856 2250 l-46 -70 54 0 c53 0 55 1 128 70 l73 69 -81 1 -81 0 -47
-70z"/>
<path d="M7146 2090 c-103 -40 -181 -123 -211 -224 -66 -218 17 -442 193 -524
48 -22 71 -27 147 -27 97 0 140 15 198 69 29 27 30 26 41 -26 6 -26 10 -28 56
-28 l50 0 0 210 0 210 -160 0 -160 0 0 -60 0 -60 85 0 c82 0 85 -1 85 -23 0
-12 -10 -43 -22 -67 -50 -98 -205 -120 -291 -42 -66 59 -95 214 -63 326 45
152 221 205 321 95 19 -22 35 -46 35 -54 0 -12 16 -15 80 -15 77 0 80 1 80 23
0 39 -49 125 -93 162 -62 53 -131 75 -235 75 -61 -1 -102 -7 -136 -20z"/>
<path d="M9366 2090 c-58 -23 -113 -72 -132 -117 -23 -53 -18 -154 9 -194 41
-61 88 -83 309 -144 99 -27 141 -83 108 -144 -22 -42 -150 -65 -217 -40 -42
16 -82 58 -89 96 l-6 33 -79 0 -79 0 0 -32 c0 -41 39 -126 71 -155 121 -111
406 -109 510 4 44 47 59 87 59 158 0 135 -63 188 -296 244 -50 13 -106 31
-123 42 -29 17 -32 24 -29 61 4 58 39 83 116 82 76 0 120 -24 140 -75 l15 -39
80 0 80 0 -7 43 c-11 70 -53 127 -121 162 -53 27 -69 30 -164 32 -86 2 -115
-1 -155 -17z"/>
<path d="M10173 2089 c-159 -61 -254 -252 -225 -451 21 -139 93 -242 211 -297
49 -23 68 -26 161 -26 93 0 112 3 161 26 118 55 190 158 211 297 30 201 -66
391 -227 451 -76 29 -218 28 -292 0z m237 -134 c100 -52 147 -210 105 -353
-28 -94 -102 -152 -195 -152 -93 0 -167 58 -195 152 -37 127 -4 272 78 337 52
41 144 48 207 16z"/>
<path d="M3820 1710 l0 -380 290 0 290 0 0 70 0 70 -210 0 -210 0 0 95 0 95
185 0 185 0 0 65 0 65 -185 0 -186 0 3 83 3 82 203 3 202 2 0 65 0 65 -285 0
-285 0 0 -380z"/>
<path d="M4550 1710 l0 -380 80 0 80 0 2 254 3 255 158 -255 159 -254 84 0 84
0 0 380 0 380 -75 0 -75 0 0 -250 c0 -137 -4 -250 -8 -250 -4 0 -77 112 -162
250 l-155 249 -87 1 -88 0 0 -380z"/>
<path d="M5390 1710 l0 -380 290 0 290 0 0 70 0 70 -207 2 -208 3 0 90 0 90
188 3 187 2 0 65 0 65 -190 0 -191 0 3 83 3 82 203 3 202 2 0 65 0 65 -285 0
-285 0 0 -380z"/>
<path d="M6130 1710 l0 -380 80 0 80 0 0 151 0 151 119 -4 c162 -4 174 -15
192 -178 14 -128 8 -120 101 -120 79 0 80 0 74 23 -4 12 -11 67 -17 122 -11
115 -34 172 -79 198 l-31 19 32 21 c62 42 74 69 74 166 0 77 -3 92 -25 124
-14 20 -46 48 -71 62 -46 25 -49 25 -288 25 l-241 0 0 -380z m435 229 c31 -31
42 -88 25 -129 -20 -49 -54 -60 -185 -60 l-115 0 0 111 0 111 125 -3 c118 -4
126 -5 150 -30z"/>
<path d="M7800 1710 l0 -380 85 0 85 0 0 380 0 380 -85 0 -85 0 0 -380z"/>
<path d="M8222 1717 c-78 -205 -142 -376 -142 -380 0 -4 37 -7 83 -7 l82 0 30
85 29 85 146 0 146 0 28 -85 27 -85 88 0 89 0 -142 378 -142 377 -90 3 -90 3
-142 -374z m281 51 c25 -73 43 -136 40 -140 -5 -9 -177 -11 -186 -2 -7 7 85
274 94 274 4 0 27 -60 52 -132z"/>
<path d="M10860 1710 l0 -380 270 0 270 0 0 70 0 70 -190 0 -190 0 0 310 0
310 -80 0 -80 0 0 -380z"/>
<path d="M11731 2068 c-49 -127 -256 -672 -267 -701 l-13 -38 86 3 86 3 27 80
27 80 148 0 148 0 27 -80 27 -80 88 -3 c68 -2 86 0 83 10 -3 7 -67 178 -143
381 l-138 367 -89 0 c-83 0 -89 -2 -97 -22z m147 -302 c23 -65 42 -124 42
-132 0 -11 -20 -14 -95 -14 -72 0 -95 3 -95 13 0 7 20 69 45 137 25 68 45 126
45 129 0 20 23 -32 58 -133z"/>
<path d="M12310 1710 l0 -380 80 0 79 0 3 148 3 147 105 3 c155 3 185 -20 201
-154 5 -43 11 -94 14 -111 l6 -33 85 0 c82 0 84 1 74 20 -6 11 -15 67 -20 125
-11 120 -33 176 -81 201 l-31 16 29 18 c120 73 121 268 1 347 l-41 28 -254 3
-253 3 0 -381z m427 240 c49 -32 59 -120 19 -167 -24 -28 -26 -28 -155 -31
l-131 -4 0 105 c0 57 3 107 8 111 13 14 235 2 259 -14z"/>
<path d="M215 1996 c-126 -31 -193 -105 -210 -233 -15 -112 31 -210 118 -255
73 -37 137 -48 326 -57 158 -8 187 -11 210 -28 54 -41 31 -101 -46 -122 -23
-7 -152 -11 -320 -11 l-283 0 0 -95 0 -95 298 0 c317 0 387 7 463 46 92 46
130 120 130 249 0 90 -17 132 -74 181 -66 56 -143 74 -353 84 -226 11 -260 23
-252 86 8 69 83 83 436 84 l242 0 0 90 0 90 -317 -1 c-216 0 -334 -5 -368 -13z"/>
<path d="M1355 1992 c-127 -44 -244 -146 -298 -259 -30 -64 -32 -75 -32 -178
0 -105 2 -114 34 -179 47 -97 127 -173 237 -228 l87 -43 229 -3 228 -3 0 95 0
96 -196 0 c-217 0 -228 3 -303 67 -124 106 -134 252 -25 372 20 23 58 54 83
69 45 26 50 27 244 30 l197 4 0 89 0 89 -217 0 c-180 -1 -227 -4 -268 -18z"/>
<path d="M1950 1556 l0 -456 110 0 110 0 0 366 0 367 173 -6 c185 -6 244 -18
291 -62 54 -50 21 -130 -63 -156 -20 -6 -98 -13 -173 -16 l-138 -6 0 -103 0
-104 135 0 c151 0 177 -7 218 -62 38 -50 57 -105 57 -164 l0 -54 106 0 106 0
-4 108 c-3 91 -8 114 -31 158 -14 28 -40 65 -56 81 l-30 30 48 50 c57 59 76
120 68 219 -9 119 -62 186 -186 236 -54 22 -70 23 -398 26 l-343 3 0 -455z"/>
<path d="M1360 1555 l0 -105 215 0 215 0 0 105 0 105 -215 0 -215 0 0 -105z"/>
<path d="M12605 1158 c-23 -33 1 -36 33 -4 26 25 26 26 5 26 -12 0 -29 -10
-38 -22z"/>
<path d="M9152 1098 c3 -7 22 -64 42 -125 36 -107 39 -113 65 -113 25 0 29 6
68 126 l42 125 -26 -3 c-23 -3 -29 -12 -50 -73 -13 -38 -26 -77 -29 -85 -4 -9
-18 19 -34 70 -25 77 -31 85 -55 88 -20 3 -26 0 -23 -10z"/>
<path d="M9390 985 l0 -125 90 0 c83 0 90 1 90 20 0 18 -7 20 -65 20 l-65 0 0
35 0 35 60 0 c53 0 60 2 60 20 0 18 -7 20 -60 20 l-60 0 0 30 0 30 65 0 c58 0
65 2 65 20 0 19 -7 20 -90 20 l-90 0 0 -125z"/>
<path d="M9620 985 c0 -118 1 -125 20 -125 18 0 20 7 20 80 0 44 3 80 8 80 4
0 27 -35 52 -78 37 -62 51 -78 73 -80 l27 -3 0 125 0 126 -25 0 c-25 0 -25 -1
-25 -87 l0 -88 -52 88 c-42 69 -57 87 -75 87 -23 0 -23 -2 -23 -125z"/>
<path d="M9850 1091 c0 -16 8 -20 38 -23 l37 -3 3 -102 c2 -94 4 -103 22 -103
18 0 20 9 22 103 l3 102 38 3 c29 3 37 7 37 23 0 18 -8 19 -100 19 -92 0 -100
-1 -100 -19z"/>
<path d="M10107 1068 c-8 -24 -29 -80 -46 -125 l-30 -83 24 0 c18 0 28 8 35
25 8 22 15 25 59 25 44 0 49 -3 55 -25 5 -18 13 -25 31 -25 14 0 25 3 25 8 0
4 -19 59 -43 122 -38 104 -45 115 -69 118 -22 3 -28 -2 -41 -40z m52 -50 c25
-68 25 -68 -13 -68 l-35 0 16 45 c8 25 17 45 19 45 3 0 8 -10 13 -22z"/>
<path d="M10390 985 l0 -125 90 0 c83 0 90 2 90 20 0 17 -8 19 -67 22 l-68 3
0 30 c0 30 1 30 58 33 49 3 57 6 57 22 0 18 -7 20 -61 20 -60 0 -60 0 -57 28
3 26 6 27 66 30 54 3 62 6 62 22 0 18 -7 20 -85 20 l-85 0 0 -125z"/>
<path d="M10710 985 c0 -118 1 -125 20 -125 19 0 20 7 20 125 0 118 -1 125
-20 125 -19 0 -20 -7 -20 -125z"/>
<path d="M10810 985 c0 -118 1 -125 20 -125 18 0 20 7 20 80 0 44 3 80 8 80 4
0 27 -35 52 -78 37 -62 51 -78 73 -80 l27 -3 0 125 0 126 -25 0 c-25 0 -25 -1
-25 -87 l0 -88 -52 88 c-42 69 -57 87 -75 87 -23 0 -23 -2 -23 -125z"/>
<path d="M11105 1100 c-33 -13 -47 -36 -43 -72 3 -31 7 -34 66 -55 75 -25 80
-29 66 -51 -16 -26 -66 -27 -89 -2 -21 23 -55 27 -55 5 0 -24 36 -53 72 -60
46 -8 88 6 112 38 19 26 19 30 6 55 -11 19 -32 32 -70 45 -67 22 -77 31 -60
52 16 19 54 19 70 0 12 -14 60 -22 60 -9 0 43 -81 76 -135 54z"/>
<path d="M11270 1090 c0 -16 7 -20 35 -20 l35 0 0 -105 0 -105 25 0 25 0 0
105 0 105 35 0 c28 0 35 4 35 20 0 19 -7 20 -95 20 -88 0 -95 -1 -95 -20z"/>
<path d="M11489 985 l-47 -125 24 0 c16 0 28 8 36 25 10 22 18 25 59 25 43 0
49 -3 55 -25 5 -19 13 -25 34 -25 l28 0 -46 125 c-43 115 -48 125 -72 125 -23
0 -29 -10 -71 -125z m89 16 c16 -52 16 -51 -18 -51 -16 0 -30 3 -30 6 0 17 24
84 30 84 4 0 12 -17 18 -39z"/>
<path d="M11710 985 l0 -125 80 0 c73 0 80 2 80 20 0 16 -8 19 -57 22 l-58 3
-3 103 c-2 94 -4 102 -22 102 -19 0 -20 -7 -20 -125z"/>
<path d="M11929 985 l-47 -125 24 0 c16 0 28 8 36 25 10 22 18 25 59 25 43 0
49 -3 55 -25 5 -19 13 -25 34 -25 l28 0 -46 125 c-43 115 -48 125 -72 125 -23
0 -29 -10 -71 -125z m89 16 c16 -52 16 -51 -18 -51 -16 0 -30 3 -30 6 0 17 24
84 30 84 4 0 12 -17 18 -39z"/>
<path d="M12203 1095 c-42 -18 -66 -57 -67 -109 -2 -82 69 -140 146 -117 36
11 68 43 68 68 0 21 -31 15 -56 -12 -28 -30 -54 -32 -85 -6 -19 15 -24 29 -24
66 0 37 5 51 24 66 30 24 56 24 81 -1 18 -18 60 -28 60 -14 0 19 -26 48 -55
60 -42 17 -51 17 -92 -1z"/>
<path d="M12400 985 l0 -125 25 0 25 0 0 125 0 125 -25 0 -25 0 0 -125z"/>
<path d="M12573 1103 c-32 -6 -72 -51 -79 -88 -19 -103 68 -180 160 -141 45
19 69 57 69 111 0 54 -24 92 -68 111 -35 14 -42 15 -82 7z m78 -52 c19 -15 24
-29 24 -66 0 -37 -5 -51 -24 -66 -31 -26 -57 -24 -86 6 -17 16 -25 35 -25 60
0 25 8 44 25 60 29 30 55 32 86 6z"/>
<path d="M12770 985 c0 -118 1 -125 20 -125 18 0 20 7 20 80 0 44 3 80 8 80 4
0 29 -36 56 -80 39 -64 53 -80 72 -80 24 0 24 0 24 125 0 118 -1 125 -20 125
-18 0 -20 -7 -20 -80 0 -44 -4 -80 -8 -80 -4 0 -30 36 -56 80 -39 64 -54 80
-72 80 -24 0 -24 0 -24 -125z"/>
<path d="M3863 1035 c-60 -18 -126 -59 -158 -97 l-28 -33 504 -3 c277 -1 1417
-1 2534 0 l2030 3 61 28 c34 16 81 48 105 73 l43 44 -2524 -1 c-2059 0 -2533
-3 -2567 -14z"/>
<path d="M40 885 c0 -14 57 -117 103 -185 231 -347 585 -582 1002 -667 127
-25 453 -25 578 0 456 92 848 380 1075 789 18 32 32 60 32 63 0 3 -628 5
-1395 5 -767 0 -1395 -2 -1395 -5z"/>
</g>
</svg>
