<svg xmlns="http://www.w3.org/2000/svg" xmlns:xlink="http://www.w3.org/1999/xlink" width="400" zoomAndPan="magnify" viewBox="0 0 300 187.499995" height="250" preserveAspectRatio="xMidYMid meet" version="1.0"><defs><clipPath id="5fab252e57"><path d="M 61.773438 5.589844 L 238.300781 5.589844 L 238.300781 181.371094 L 61.773438 181.371094 Z M 61.773438 5.589844 " clip-rule="nonzero"/></clipPath></defs><g clip-path="url(#5fab252e57)"><path fill="#18a558" d="M 69.070312 218.570312 L 93.46875 218.570312 L 93.46875 212.628906 L 76.140625 212.628906 L 76.140625 204.75 L 91.71875 204.75 L 91.71875 199.257812 L 76.140625 199.257812 L 76.140625 192.367188 L 93.109375 192.367188 L 93.109375 186.425781 L 69.070312 186.425781 Z M 224.675781 246.511719 C 224.675781 250.609375 227.039062 253.839844 231.488281 253.839844 C 235.941406 253.839844 238.300781 250.609375 238.300781 246.511719 C 238.300781 242.382812 235.941406 239.160156 231.488281 239.160156 C 227.039062 239.160156 224.675781 242.386719 224.675781 246.511719 Z M 227.121094 246.511719 C 227.121094 243.085938 229.074219 241.1875 231.488281 241.1875 C 233.90625 241.1875 235.859375 243.085938 235.859375 246.511719 C 235.859375 249.898438 233.90625 251.796875 231.488281 251.796875 C 229.074219 251.796875 227.121094 249.898438 227.121094 246.511719 Z M 220.089844 235.273438 L 217.78125 235.273438 L 217.78125 239.484375 L 215.394531 239.484375 L 215.394531 241.519531 L 217.78125 241.519531 L 217.78125 250.445312 C 217.78125 253.027344 218.734375 253.511719 221.117188 253.511719 L 222.882812 253.511719 L 222.882812 251.472656 L 221.828125 251.472656 C 220.390625 251.472656 220.089844 251.28125 220.089844 250.222656 L 220.089844 241.511719 L 222.882812 241.511719 L 222.882812 239.476562 L 220.089844 239.476562 L 220.089844 235.269531 Z M 201.796875 253.511719 L 204.101562 253.511719 L 204.101562 245.585938 C 204.101562 243.058594 205.460938 241.1875 208.257812 241.1875 C 210.023438 241.1875 211.109375 242.300781 211.109375 244.011719 L 211.109375 253.511719 L 213.414062 253.511719 L 213.414062 244.28125 C 213.414062 241.265625 212.273438 239.152344 208.585938 239.152344 C 206.578125 239.152344 205.003906 239.96875 204.027344 241.699219 L 203.972656 241.699219 L 203.972656 239.476562 L 201.796875 239.476562 Z M 196.910156 249.058594 C 196.503906 250.875 195.171875 251.796875 193.273438 251.796875 C 190.207031 251.796875 188.820312 249.628906 188.90625 247.1875 L 199.410156 247.1875 C 199.546875 243.796875 198.027344 239.152344 193.058594 239.152344 C 189.234375 239.152344 186.46875 242.246094 186.46875 246.453125 C 186.605469 250.742188 188.71875 253.839844 193.195312 253.839844 C 196.34375 253.839844 198.566406 252.15625 199.195312 249.0625 L 196.917969 249.0625 Z M 188.90625 245.152344 C 189.070312 243.003906 190.507812 241.1875 192.921875 241.1875 C 195.199219 241.1875 196.855469 242.949219 196.964844 245.152344 Z M 181.332031 253.511719 L 183.640625 253.511719 L 183.640625 239.476562 L 181.332031 239.476562 Z M 183.640625 234.132812 L 181.332031 234.132812 L 181.332031 236.957031 L 183.640625 236.957031 Z M 158.046875 253.511719 L 160.351562 253.511719 L 160.351562 244.769531 C 160.351562 243.710938 161.351562 241.1875 164.097656 241.1875 C 166.164062 241.1875 166.730469 242.492188 166.730469 244.308594 L 166.730469 253.511719 L 169.035156 253.511719 L 169.035156 244.769531 C 169.035156 242.597656 170.476562 241.1875 172.699219 241.1875 C 174.949219 241.1875 175.414062 242.570312 175.414062 244.308594 L 175.414062 253.511719 L 177.71875 253.511719 L 177.71875 243.226562 C 177.71875 240.320312 175.839844 239.152344 173.050781 239.152344 C 171.261719 239.152344 169.605469 240.050781 168.65625 241.539062 C 168.082031 239.828125 166.507812 239.152344 164.804688 239.152344 C 162.878906 239.152344 161.304688 239.96875 160.269531 241.539062 L 160.214844 241.539062 L 160.214844 239.476562 L 158.039062 239.476562 L 158.039062 253.511719 Z M 152.160156 253.511719 L 154.464844 253.511719 L 154.464844 239.476562 L 152.160156 239.476562 Z M 154.464844 234.132812 L 152.160156 234.132812 L 152.160156 236.957031 L 154.464844 236.957031 Z M 149.902344 239.476562 L 147.488281 239.476562 L 143.664062 251.175781 L 143.605469 251.175781 L 139.671875 239.476562 L 137.097656 239.476562 L 142.308594 253.511719 L 144.78125 253.511719 L 149.90625 239.476562 Z M 122.113281 246.511719 C 122.113281 250.609375 124.476562 253.839844 128.925781 253.839844 C 133.378906 253.839844 135.738281 250.609375 135.738281 246.511719 C 135.738281 242.382812 133.378906 239.160156 128.925781 239.160156 C 124.476562 239.160156 122.113281 242.386719 122.113281 246.511719 Z M 124.558594 246.511719 C 124.558594 243.085938 126.511719 241.1875 128.925781 241.1875 C 131.34375 241.1875 133.296875 243.085938 133.296875 246.511719 C 133.296875 249.898438 131.34375 251.796875 128.925781 251.796875 C 126.511719 251.796875 124.558594 249.898438 124.558594 246.511719 Z M 99.730469 253.511719 L 102.035156 253.511719 L 102.035156 244.769531 C 102.035156 243.710938 103.035156 241.1875 105.78125 241.1875 C 107.847656 241.1875 108.414062 242.492188 108.414062 244.308594 L 108.414062 253.511719 L 110.71875 253.511719 L 110.71875 244.769531 C 110.71875 242.597656 112.15625 241.1875 114.382812 241.1875 C 116.632812 241.1875 117.09375 242.570312 117.09375 244.308594 L 117.09375 253.511719 L 119.402344 253.511719 L 119.402344 243.226562 C 119.402344 240.320312 117.53125 239.152344 114.734375 239.152344 C 112.941406 239.152344 111.289062 240.050781 110.339844 241.539062 C 109.765625 239.828125 108.191406 239.152344 106.488281 239.152344 C 104.5625 239.152344 102.988281 239.96875 101.953125 241.539062 L 101.898438 241.539062 L 101.898438 239.476562 L 99.730469 239.476562 Z M 77.097656 253.511719 L 79.402344 253.511719 L 79.402344 245.585938 C 79.402344 243.058594 80.761719 241.1875 83.558594 241.1875 C 85.316406 241.1875 86.40625 242.300781 86.40625 244.011719 L 86.40625 253.511719 L 88.714844 253.511719 L 88.714844 244.28125 C 88.714844 241.265625 87.574219 239.152344 83.882812 239.152344 C 81.875 239.152344 80.300781 239.96875 79.324219 241.699219 L 79.269531 241.699219 L 79.269531 239.476562 L 77.097656 239.476562 Z M 72.210938 249.058594 C 71.804688 250.875 70.472656 251.796875 68.574219 251.796875 C 65.507812 251.796875 64.121094 249.628906 64.203125 247.1875 L 74.703125 247.1875 C 74.839844 243.796875 73.324219 239.152344 68.355469 239.152344 C 64.527344 239.152344 61.757812 242.246094 61.757812 246.453125 C 61.894531 250.742188 64.011719 253.839844 68.484375 253.839844 C 71.632812 253.839844 73.863281 252.15625 74.484375 249.0625 L 72.207031 249.0625 Z M 64.203125 245.152344 C 64.363281 243.003906 65.804688 241.1875 68.222656 241.1875 C 70.5 241.1875 72.15625 242.949219 72.265625 245.152344 Z M 124.289062 146.382812 L 128.949219 146.449219 C 129.613281 146.460938 129.976562 145.621094 129.75 144.574219 L 129.101562 141.183594 C 128.625 138.371094 128.238281 135.558594 127.765625 132.757812 C 127.550781 131.746094 128.335938 131.410156 128.839844 132.296875 L 139.332031 148.683594 C 140.492188 150.742188 140.554688 154.457031 137.269531 154.414062 L 132.609375 154.347656 C 131.941406 154.335938 131.585938 155.179688 131.804688 156.21875 L 132.453125 159.613281 C 132.976562 162.707031 133.125 163.238281 133.53125 166.460938 L 133.527344 166.460938 L 133.796875 168.042969 C 134.011719 169.058594 133.222656 169.390625 132.722656 168.507812 L 122.230469 152.113281 C 121.070312 150.054688 121.03125 146.339844 124.292969 146.382812 Z M 126.289062 91.21875 L 126.289062 108 C 126.289062 110.402344 127.886719 111.996094 130.445312 111.996094 L 155.652344 111.996094 C 157.996094 111.996094 160.152344 112.707031 162.125 114.125 C 164.09375 115.539062 165.855469 117.234375 167.394531 119.210938 C 168.9375 121.1875 170.203125 123.277344 171.1875 125.5 C 172.171875 127.71875 172.847656 129.566406 173.21875 131.046875 L 173.21875 164.121094 L 173.238281 164.121094 L 173.238281 174.410156 C 193.261719 171.621094 210.457031 160.339844 219.921875 141.304688 C 232.175781 116.664062 228.417969 85.199219 212.660156 58.558594 C 211.15625 51.15625 204.890625 44.34375 196.59375 41.96875 C 189.957031 40.070312 183.632812 41.472656 179.507812 45.152344 C 192.140625 47.925781 198.28125 66.257812 209.769531 66.230469 C 206.535156 60.730469 200.6875 52.109375 193.894531 48.152344 C 198.160156 50.347656 205.417969 55.058594 211.722656 63.96875 C 223.59375 86.949219 225.832031 113.074219 215.5 133.847656 C 211.292969 142.300781 205.40625 149.066406 198.359375 154.0625 L 198.359375 124.5 L 198.203125 124.5 C 197.792969 120.6875 196.546875 116.734375 194.480469 112.640625 C 191.894531 107.527344 188.4375 103.367188 184.128906 100.160156 C 188.441406 97.328125 191.894531 93.9375 194.480469 89.992188 C 197.066406 86.046875 198.363281 80.4375 198.363281 73.164062 C 198.363281 69.597656 198.039062 66.371094 197.382812 63.496094 C 190.042969 59.085938 184.507812 47.707031 175.078125 45.636719 C 176.199219 44.636719 177.492188 43.816406 178.921875 43.207031 C 173.988281 41.191406 168.632812 39.925781 162.867188 39.417969 C 156.578125 38.863281 150.601562 38.589844 144.929688 38.589844 L 91.496094 38.589844 L 91.496094 118.710938 C 98.222656 128.273438 106.679688 136.957031 116.640625 144.050781 L 116.640625 60.777344 L 142.703125 60.777344 C 145.660156 60.777344 148.894531 60.964844 152.410156 61.332031 C 155.921875 61.699219 159.15625 62.378906 162.117188 63.363281 C 165.074219 64.347656 167.570312 65.671875 169.605469 67.335938 C 171.644531 69.003906 172.65625 71.1875 172.65625 73.898438 C 172.65625 78.953125 170.003906 82.441406 164.710938 84.34375 C 159.410156 86.253906 152.074219 87.210938 142.703125 87.210938 L 130.433594 87.210938 C 127.875 87.210938 126.28125 88.8125 126.28125 91.207031 Z M 70.96875 39.480469 C 89.5625 2.085938 137.984375 -5.429688 179.121094 22.691406 C 185.207031 26.851562 190.792969 31.5625 195.839844 36.691406 C 194.683594 36.128906 193.472656 35.660156 192.207031 35.296875 C 191.140625 34.996094 190.082031 34.773438 189.042969 34.648438 C 185.757812 31.699219 182.253906 28.941406 178.539062 26.40625 C 141.273438 0.9375 97.414062 7.746094 80.570312 41.613281 C 63.753906 75.417969 80.210938 123.398438 117.320312 148.90625 C 117.320312 149.863281 117.601562 150.875 118.042969 151.652344 L 128 167.21875 C 122.527344 164.765625 117.089844 161.726562 111.773438 158.101562 C 70.636719 129.984375 52.363281 76.878906 70.960938 39.492188 Z M 221.210938 209.5625 C 221.210938 210.957031 221.027344 214.921875 216.03125 214.921875 C 213.964844 214.921875 212.113281 214.335938 212.113281 211.953125 C 212.113281 209.613281 213.914062 208.9375 215.894531 208.527344 C 217.875 208.171875 220.125 208.121094 221.207031 207.179688 L 221.207031 209.5625 Z M 212.835938 202.449219 C 213.0625 199.929688 214.636719 198.9375 217.066406 198.9375 C 219.316406 198.9375 221.210938 199.34375 221.210938 202.089844 C 221.210938 204.699219 217.5625 204.566406 213.648438 205.148438 C 209.6875 205.691406 205.726562 206.957031 205.726562 212.214844 C 205.726562 216.988281 209.238281 219.195312 213.648438 219.195312 C 216.484375 219.195312 219.457031 218.429688 221.480469 216.316406 C 221.523438 217.082031 221.707031 217.84375 221.929688 218.566406 L 228.414062 218.566406 C 227.832031 217.621094 227.605469 215.5 227.605469 213.386719 L 227.605469 201.277344 C 227.605469 195.695312 222.019531 194.65625 217.386719 194.65625 C 212.164062 194.65625 206.808594 196.457031 206.445312 202.441406 L 212.839844 202.441406 Z M 195.28125 218.566406 L 201.675781 218.566406 L 201.675781 195.289062 L 195.28125 195.289062 Z M 206.492188 186.015625 L 199.425781 186.015625 L 195.105469 192.410156 L 199.5625 192.410156 L 206.496094 186.015625 Z M 189.972656 195.289062 L 183.898438 195.289062 L 183.898438 198.398438 L 183.808594 198.398438 C 182.28125 195.695312 179.933594 194.660156 176.875 194.660156 C 170.351562 194.660156 166.882812 200.152344 166.882812 206.183594 C 166.882812 212.578125 169.855469 217.890625 176.832031 217.890625 C 179.621094 217.890625 182.417969 216.71875 183.808594 214.285156 L 183.898438 214.285156 L 183.898438 217.34375 C 183.941406 220.679688 182.324219 223.105469 178.769531 223.105469 C 176.519531 223.105469 174.582031 222.296875 174 219.910156 L 167.648438 219.910156 C 167.960938 225.21875 173.320312 227.382812 177.910156 227.382812 C 188.625 227.382812 189.972656 220.898438 189.972656 217.074219 Z M 178.449219 213.074219 C 174.53125 213.074219 173.273438 209.425781 173.273438 206.097656 C 173.273438 202.628906 174.84375 199.476562 178.449219 199.476562 C 182.59375 199.476562 183.898438 202.855469 183.898438 206.636719 C 183.898438 209.964844 182.097656 213.074219 178.449219 213.074219 Z M 150.089844 218.566406 L 156.484375 218.566406 L 156.484375 208.078125 C 156.484375 203.984375 158.105469 200.605469 162.785156 200.605469 C 163.546875 200.605469 164.496094 200.691406 165.082031 200.832031 L 165.082031 194.886719 C 164.675781 194.753906 164.136719 194.660156 163.6875 194.660156 C 160.582031 194.660156 157.429688 196.6875 156.257812 199.613281 L 156.167969 199.613281 L 156.167969 195.292969 L 150.089844 195.292969 L 150.089844 218.570312 Z M 146.308594 208.480469 C 146.761719 201.320312 142.929688 194.660156 135.011719 194.660156 C 127.945312 194.660156 123.125 199.976562 123.125 206.957031 C 123.125 214.160156 127.671875 219.199219 135.011719 219.199219 C 140.277344 219.199219 144.109375 216.859375 145.90625 211.363281 L 140.277344 211.363281 C 139.871094 212.804688 137.800781 214.378906 135.238281 214.378906 C 131.683594 214.378906 129.703125 212.535156 129.519531 208.480469 Z M 129.519531 204.429688 C 129.609375 202.628906 130.78125 199.476562 134.832031 199.476562 C 137.941406 199.476562 139.332031 201.1875 139.914062 204.429688 L 129.515625 204.429688 Z M 97.554688 218.566406 L 103.949219 218.566406 L 103.949219 206.367188 C 103.949219 201.640625 105.4375 199.703125 108.902344 199.703125 C 111.875 199.703125 112.996094 201.589844 112.996094 205.421875 L 112.996094 218.566406 L 119.390625 218.566406 L 119.390625 204.246094 C 119.390625 198.484375 117.679688 194.660156 110.882812 194.660156 C 108.179688 194.660156 105.390625 195.921875 103.769531 198.535156 L 103.628906 198.535156 L 103.628906 195.292969 L 97.554688 195.292969 L 97.554688 218.570312 Z M 97.554688 218.566406 " fill-opacity="1" fill-rule="evenodd"/></g></svg>